<svg xmlns="http://www.w3.org/2000/svg" width="1268" height="736" viewBox="0 0 1268 736" font-family="Georgia, serif">
<rect width="1268" height="736" fill="#1a1712"/>
<rect x="22" y="22" width="925" height="692" fill="#241f17" stroke="#5a4a2a" stroke-width="2"/>
<g stroke="#3a3326" stroke-width="1" fill="none">
<polygon points="57.4,28.0 86.9,45.0 86.9,79.0 57.4,96.0 28.0,79.0 28.0,45.0"/>
<polygon points="116.3,28.0 145.8,45.0 145.8,79.0 116.3,96.0 86.9,79.0 86.9,45.0"/>
<polygon points="175.2,28.0 204.7,45.0 204.7,79.0 175.2,96.0 145.8,79.0 145.8,45.0"/>
<polygon points="234.1,28.0 263.6,45.0 263.6,79.0 234.1,96.0 204.7,79.0 204.7,45.0"/>
<polygon points="293.0,28.0 322.4,45.0 322.4,79.0 293.0,96.0 263.6,79.0 263.6,45.0"/>
<polygon points="351.9,28.0 381.3,45.0 381.3,79.0 351.9,96.0 322.4,79.0 322.4,45.0"/>
<polygon points="410.8,28.0 440.2,45.0 440.2,79.0 410.8,96.0 381.3,79.0 381.3,45.0"/>
<polygon points="469.7,28.0 499.1,45.0 499.1,79.0 469.7,96.0 440.2,79.0 440.2,45.0"/>
<polygon points="528.6,28.0 558.0,45.0 558.0,79.0 528.6,96.0 499.1,79.0 499.1,45.0"/>
<polygon points="587.5,28.0 616.9,45.0 616.9,79.0 587.5,96.0 558.0,79.0 558.0,45.0"/>
<polygon points="646.3,28.0 675.8,45.0 675.8,79.0 646.3,96.0 616.9,79.0 616.9,45.0"/>
<polygon points="705.2,28.0 734.7,45.0 734.7,79.0 705.2,96.0 675.8,79.0 675.8,45.0"/>
<polygon points="764.1,28.0 793.6,45.0 793.6,79.0 764.1,96.0 734.7,79.0 734.7,45.0"/>
<polygon points="823.0,28.0 852.5,45.0 852.5,79.0 823.0,96.0 793.6,79.0 793.6,45.0"/>
<polygon points="881.9,28.0 911.3,45.0 911.3,79.0 881.9,96.0 852.5,79.0 852.5,45.0"/>
<polygon points="86.9,79.0 116.3,96.0 116.3,130.0 86.9,147.0 57.4,130.0 57.4,96.0"/>
<polygon points="145.8,79.0 175.2,96.0 175.2,130.0 145.8,147.0 116.3,130.0 116.3,96.0"/>
<polygon points="204.7,79.0 234.1,96.0 234.1,130.0 204.7,147.0 175.2,130.0 175.2,96.0"/>
<polygon points="263.6,79.0 293.0,96.0 293.0,130.0 263.6,147.0 234.1,130.0 234.1,96.0"/>
<polygon points="322.4,79.0 351.9,96.0 351.9,130.0 322.4,147.0 293.0,130.0 293.0,96.0"/>
<polygon points="381.3,79.0 410.8,96.0 410.8,130.0 381.3,147.0 351.9,130.0 351.9,96.0"/>
<polygon points="440.2,79.0 469.7,96.0 469.7,130.0 440.2,147.0 410.8,130.0 410.8,96.0"/>
<polygon points="499.1,79.0 528.6,96.0 528.6,130.0 499.1,147.0 469.7,130.0 469.7,96.0"/>
<polygon points="558.0,79.0 587.5,96.0 587.5,130.0 558.0,147.0 528.6,130.0 528.6,96.0"/>
<polygon points="616.9,79.0 646.3,96.0 646.3,130.0 616.9,147.0 587.5,130.0 587.5,96.0"/>
<polygon points="675.8,79.0 705.2,96.0 705.2,130.0 675.8,147.0 646.3,130.0 646.3,96.0"/>
<polygon points="734.7,79.0 764.1,96.0 764.1,130.0 734.7,147.0 705.2,130.0 705.2,96.0"/>
<polygon points="793.6,79.0 823.0,96.0 823.0,130.0 793.6,147.0 764.1,130.0 764.1,96.0"/>
<polygon points="852.5,79.0 881.9,96.0 881.9,130.0 852.5,147.0 823.0,130.0 823.0,96.0"/>
<polygon points="57.4,130.0 86.9,147.0 86.9,181.0 57.4,198.0 28.0,181.0 28.0,147.0"/>
<polygon points="116.3,130.0 145.8,147.0 145.8,181.0 116.3,198.0 86.9,181.0 86.9,147.0"/>
<polygon points="175.2,130.0 204.7,147.0 204.7,181.0 175.2,198.0 145.8,181.0 145.8,147.0"/>
<polygon points="234.1,130.0 263.6,147.0 263.6,181.0 234.1,198.0 204.7,181.0 204.7,147.0"/>
<polygon points="293.0,130.0 322.4,147.0 322.4,181.0 293.0,198.0 263.6,181.0 263.6,147.0"/>
<polygon points="351.9,130.0 381.3,147.0 381.3,181.0 351.9,198.0 322.4,181.0 322.4,147.0"/>
<polygon points="410.8,130.0 440.2,147.0 440.2,181.0 410.8,198.0 381.3,181.0 381.3,147.0"/>
<polygon points="469.7,130.0 499.1,147.0 499.1,181.0 469.7,198.0 440.2,181.0 440.2,147.0"/>
<polygon points="528.6,130.0 558.0,147.0 558.0,181.0 528.6,198.0 499.1,181.0 499.1,147.0"/>
<polygon points="587.5,130.0 616.9,147.0 616.9,181.0 587.5,198.0 558.0,181.0 558.0,147.0"/>
<polygon points="646.3,130.0 675.8,147.0 675.8,181.0 646.3,198.0 616.9,181.0 616.9,147.0"/>
<polygon points="705.2,130.0 734.7,147.0 734.7,181.0 705.2,198.0 675.8,181.0 675.8,147.0"/>
<polygon points="764.1,130.0 793.6,147.0 793.6,181.0 764.1,198.0 734.7,181.0 734.7,147.0"/>
<polygon points="823.0,130.0 852.5,147.0 852.5,181.0 823.0,198.0 793.6,181.0 793.6,147.0"/>
<polygon points="881.9,130.0 911.3,147.0 911.3,181.0 881.9,198.0 852.5,181.0 852.5,147.0"/>
<polygon points="86.9,181.0 116.3,198.0 116.3,232.0 86.9,249.0 57.4,232.0 57.4,198.0"/>
<polygon points="145.8,181.0 175.2,198.0 175.2,232.0 145.8,249.0 116.3,232.0 116.3,198.0"/>
<polygon points="204.7,181.0 234.1,198.0 234.1,232.0 204.7,249.0 175.2,232.0 175.2,198.0"/>
<polygon points="263.6,181.0 293.0,198.0 293.0,232.0 263.6,249.0 234.1,232.0 234.1,198.0"/>
<polygon points="322.4,181.0 351.9,198.0 351.9,232.0 322.4,249.0 293.0,232.0 293.0,198.0"/>
<polygon points="381.3,181.0 410.8,198.0 410.8,232.0 381.3,249.0 351.9,232.0 351.9,198.0"/>
<polygon points="440.2,181.0 469.7,198.0 469.7,232.0 440.2,249.0 410.8,232.0 410.8,198.0"/>
<polygon points="499.1,181.0 528.6,198.0 528.6,232.0 499.1,249.0 469.7,232.0 469.7,198.0"/>
<polygon points="558.0,181.0 587.5,198.0 587.5,232.0 558.0,249.0 528.6,232.0 528.6,198.0"/>
<polygon points="616.9,181.0 646.3,198.0 646.3,232.0 616.9,249.0 587.5,232.0 587.5,198.0"/>
<polygon points="675.8,181.0 705.2,198.0 705.2,232.0 675.8,249.0 646.3,232.0 646.3,198.0"/>
<polygon points="734.7,181.0 764.1,198.0 764.1,232.0 734.7,249.0 705.2,232.0 705.2,198.0"/>
<polygon points="793.6,181.0 823.0,198.0 823.0,232.0 793.6,249.0 764.1,232.0 764.1,198.0"/>
<polygon points="852.5,181.0 881.9,198.0 881.9,232.0 852.5,249.0 823.0,232.0 823.0,198.0"/>
<polygon points="57.4,232.0 86.9,249.0 86.9,283.0 57.4,300.0 28.0,283.0 28.0,249.0"/>
<polygon points="116.3,232.0 145.8,249.0 145.8,283.0 116.3,300.0 86.9,283.0 86.9,249.0"/>
<polygon points="175.2,232.0 204.7,249.0 204.7,283.0 175.2,300.0 145.8,283.0 145.8,249.0"/>
<polygon points="234.1,232.0 263.6,249.0 263.6,283.0 234.1,300.0 204.7,283.0 204.7,249.0"/>
<polygon points="293.0,232.0 322.4,249.0 322.4,283.0 293.0,300.0 263.6,283.0 263.6,249.0"/>
<polygon points="351.9,232.0 381.3,249.0 381.3,283.0 351.9,300.0 322.4,283.0 322.4,249.0"/>
<polygon points="410.8,232.0 440.2,249.0 440.2,283.0 410.8,300.0 381.3,283.0 381.3,249.0"/>
<polygon points="469.7,232.0 499.1,249.0 499.1,283.0 469.7,300.0 440.2,283.0 440.2,249.0"/>
<polygon points="528.6,232.0 558.0,249.0 558.0,283.0 528.6,300.0 499.1,283.0 499.1,249.0"/>
<polygon points="587.5,232.0 616.9,249.0 616.9,283.0 587.5,300.0 558.0,283.0 558.0,249.0"/>
<polygon points="646.3,232.0 675.8,249.0 675.8,283.0 646.3,300.0 616.9,283.0 616.9,249.0"/>
<polygon points="705.2,232.0 734.7,249.0 734.7,283.0 705.2,300.0 675.8,283.0 675.8,249.0"/>
<polygon points="764.1,232.0 793.6,249.0 793.6,283.0 764.1,300.0 734.7,283.0 734.7,249.0"/>
<polygon points="823.0,232.0 852.5,249.0 852.5,283.0 823.0,300.0 793.6,283.0 793.6,249.0"/>
<polygon points="881.9,232.0 911.3,249.0 911.3,283.0 881.9,300.0 852.5,283.0 852.5,249.0"/>
<polygon points="86.9,283.0 116.3,300.0 116.3,334.0 86.9,351.0 57.4,334.0 57.4,300.0"/>
<polygon points="145.8,283.0 175.2,300.0 175.2,334.0 145.8,351.0 116.3,334.0 116.3,300.0"/>
<polygon points="204.7,283.0 234.1,300.0 234.1,334.0 204.7,351.0 175.2,334.0 175.2,300.0"/>
<polygon points="263.6,283.0 293.0,300.0 293.0,334.0 263.6,351.0 234.1,334.0 234.1,300.0"/>
<polygon points="322.4,283.0 351.9,300.0 351.9,334.0 322.4,351.0 293.0,334.0 293.0,300.0"/>
<polygon points="381.3,283.0 410.8,300.0 410.8,334.0 381.3,351.0 351.9,334.0 351.9,300.0"/>
<polygon points="440.2,283.0 469.7,300.0 469.7,334.0 440.2,351.0 410.8,334.0 410.8,300.0"/>
<polygon points="499.1,283.0 528.6,300.0 528.6,334.0 499.1,351.0 469.7,334.0 469.7,300.0"/>
<polygon points="558.0,283.0 587.5,300.0 587.5,334.0 558.0,351.0 528.6,334.0 528.6,300.0"/>
<polygon points="616.9,283.0 646.3,300.0 646.3,334.0 616.9,351.0 587.5,334.0 587.5,300.0"/>
<polygon points="675.8,283.0 705.2,300.0 705.2,334.0 675.8,351.0 646.3,334.0 646.3,300.0"/>
<polygon points="734.7,283.0 764.1,300.0 764.1,334.0 734.7,351.0 705.2,334.0 705.2,300.0"/>
<polygon points="793.6,283.0 823.0,300.0 823.0,334.0 793.6,351.0 764.1,334.0 764.1,300.0"/>
<polygon points="852.5,283.0 881.9,300.0 881.9,334.0 852.5,351.0 823.0,334.0 823.0,300.0"/>
<polygon points="57.4,334.0 86.9,351.0 86.9,385.0 57.4,402.0 28.0,385.0 28.0,351.0"/>
<polygon points="116.3,334.0 145.8,351.0 145.8,385.0 116.3,402.0 86.9,385.0 86.9,351.0"/>
<polygon points="175.2,334.0 204.7,351.0 204.7,385.0 175.2,402.0 145.8,385.0 145.8,351.0"/>
<polygon points="234.1,334.0 263.6,351.0 263.6,385.0 234.1,402.0 204.7,385.0 204.7,351.0"/>
<polygon points="293.0,334.0 322.4,351.0 322.4,385.0 293.0,402.0 263.6,385.0 263.6,351.0"/>
<polygon points="351.9,334.0 381.3,351.0 381.3,385.0 351.9,402.0 322.4,385.0 322.4,351.0"/>
<polygon points="410.8,334.0 440.2,351.0 440.2,385.0 410.8,402.0 381.3,385.0 381.3,351.0"/>
<polygon points="469.7,334.0 499.1,351.0 499.1,385.0 469.7,402.0 440.2,385.0 440.2,351.0"/>
<polygon points="528.6,334.0 558.0,351.0 558.0,385.0 528.6,402.0 499.1,385.0 499.1,351.0"/>
<polygon points="587.5,334.0 616.9,351.0 616.9,385.0 587.5,402.0 558.0,385.0 558.0,351.0"/>
<polygon points="646.3,334.0 675.8,351.0 675.8,385.0 646.3,402.0 616.9,385.0 616.9,351.0"/>
<polygon points="705.2,334.0 734.7,351.0 734.7,385.0 705.2,402.0 675.8,385.0 675.8,351.0"/>
<polygon points="764.1,334.0 793.6,351.0 793.6,385.0 764.1,402.0 734.7,385.0 734.7,351.0"/>
<polygon points="823.0,334.0 852.5,351.0 852.5,385.0 823.0,402.0 793.6,385.0 793.6,351.0"/>
<polygon points="881.9,334.0 911.3,351.0 911.3,385.0 881.9,402.0 852.5,385.0 852.5,351.0"/>
<polygon points="86.9,385.0 116.3,402.0 116.3,436.0 86.9,453.0 57.4,436.0 57.4,402.0"/>
<polygon points="145.8,385.0 175.2,402.0 175.2,436.0 145.8,453.0 116.3,436.0 116.3,402.0"/>
<polygon points="204.7,385.0 234.1,402.0 234.1,436.0 204.7,453.0 175.2,436.0 175.2,402.0"/>
<polygon points="263.6,385.0 293.0,402.0 293.0,436.0 263.6,453.0 234.1,436.0 234.1,402.0"/>
<polygon points="322.4,385.0 351.9,402.0 351.9,436.0 322.4,453.0 293.0,436.0 293.0,402.0"/>
<polygon points="381.3,385.0 410.8,402.0 410.8,436.0 381.3,453.0 351.9,436.0 351.9,402.0"/>
<polygon points="440.2,385.0 469.7,402.0 469.7,436.0 440.2,453.0 410.8,436.0 410.8,402.0"/>
<polygon points="499.1,385.0 528.6,402.0 528.6,436.0 499.1,453.0 469.7,436.0 469.7,402.0"/>
<polygon points="558.0,385.0 587.5,402.0 587.5,436.0 558.0,453.0 528.6,436.0 528.6,402.0"/>
<polygon points="616.9,385.0 646.3,402.0 646.3,436.0 616.9,453.0 587.5,436.0 587.5,402.0"/>
<polygon points="675.8,385.0 705.2,402.0 705.2,436.0 675.8,453.0 646.3,436.0 646.3,402.0"/>
<polygon points="734.7,385.0 764.1,402.0 764.1,436.0 734.7,453.0 705.2,436.0 705.2,402.0"/>
<polygon points="793.6,385.0 823.0,402.0 823.0,436.0 793.6,453.0 764.1,436.0 764.1,402.0"/>
<polygon points="852.5,385.0 881.9,402.0 881.9,436.0 852.5,453.0 823.0,436.0 823.0,402.0"/>
<polygon points="57.4,436.0 86.9,453.0 86.9,487.0 57.4,504.0 28.0,487.0 28.0,453.0"/>
<polygon points="116.3,436.0 145.8,453.0 145.8,487.0 116.3,504.0 86.9,487.0 86.9,453.0"/>
<polygon points="175.2,436.0 204.7,453.0 204.7,487.0 175.2,504.0 145.8,487.0 145.8,453.0"/>
<polygon points="234.1,436.0 263.6,453.0 263.6,487.0 234.1,504.0 204.7,487.0 204.7,453.0"/>
<polygon points="293.0,436.0 322.4,453.0 322.4,487.0 293.0,504.0 263.6,487.0 263.6,453.0"/>
<polygon points="351.9,436.0 381.3,453.0 381.3,487.0 351.9,504.0 322.4,487.0 322.4,453.0"/>
<polygon points="410.8,436.0 440.2,453.0 440.2,487.0 410.8,504.0 381.3,487.0 381.3,453.0"/>
<polygon points="469.7,436.0 499.1,453.0 499.1,487.0 469.7,504.0 440.2,487.0 440.2,453.0"/>
<polygon points="528.6,436.0 558.0,453.0 558.0,487.0 528.6,504.0 499.1,487.0 499.1,453.0"/>
<polygon points="587.5,436.0 616.9,453.0 616.9,487.0 587.5,504.0 558.0,487.0 558.0,453.0"/>
<polygon points="646.3,436.0 675.8,453.0 675.8,487.0 646.3,504.0 616.9,487.0 616.9,453.0"/>
<polygon points="705.2,436.0 734.7,453.0 734.7,487.0 705.2,504.0 675.8,487.0 675.8,453.0"/>
<polygon points="764.1,436.0 793.6,453.0 793.6,487.0 764.1,504.0 734.7,487.0 734.7,453.0"/>
<polygon points="823.0,436.0 852.5,453.0 852.5,487.0 823.0,504.0 793.6,487.0 793.6,453.0"/>
<polygon points="881.9,436.0 911.3,453.0 911.3,487.0 881.9,504.0 852.5,487.0 852.5,453.0"/>
<polygon points="86.9,487.0 116.3,504.0 116.3,538.0 86.9,555.0 57.4,538.0 57.4,504.0"/>
<polygon points="145.8,487.0 175.2,504.0 175.2,538.0 145.8,555.0 116.3,538.0 116.3,504.0"/>
<polygon points="204.7,487.0 234.1,504.0 234.1,538.0 204.7,555.0 175.2,538.0 175.2,504.0"/>
<polygon points="263.6,487.0 293.0,504.0 293.0,538.0 263.6,555.0 234.1,538.0 234.1,504.0"/>
<polygon points="322.4,487.0 351.9,504.0 351.9,538.0 322.4,555.0 293.0,538.0 293.0,504.0"/>
<polygon points="381.3,487.0 410.8,504.0 410.8,538.0 381.3,555.0 351.9,538.0 351.9,504.0"/>
<polygon points="440.2,487.0 469.7,504.0 469.7,538.0 440.2,555.0 410.8,538.0 410.8,504.0"/>
<polygon points="499.1,487.0 528.6,504.0 528.6,538.0 499.1,555.0 469.7,538.0 469.7,504.0"/>
<polygon points="558.0,487.0 587.5,504.0 587.5,538.0 558.0,555.0 528.6,538.0 528.6,504.0"/>
<polygon points="616.9,487.0 646.3,504.0 646.3,538.0 616.9,555.0 587.5,538.0 587.5,504.0"/>
<polygon points="675.8,487.0 705.2,504.0 705.2,538.0 675.8,555.0 646.3,538.0 646.3,504.0"/>
<polygon points="734.7,487.0 764.1,504.0 764.1,538.0 734.7,555.0 705.2,538.0 705.2,504.0"/>
<polygon points="793.6,487.0 823.0,504.0 823.0,538.0 793.6,555.0 764.1,538.0 764.1,504.0"/>
<polygon points="852.5,487.0 881.9,504.0 881.9,538.0 852.5,555.0 823.0,538.0 823.0,504.0"/>
<polygon points="57.4,538.0 86.9,555.0 86.9,589.0 57.4,606.0 28.0,589.0 28.0,555.0"/>
<polygon points="116.3,538.0 145.8,555.0 145.8,589.0 116.3,606.0 86.9,589.0 86.9,555.0"/>
<polygon points="175.2,538.0 204.7,555.0 204.7,589.0 175.2,606.0 145.8,589.0 145.8,555.0"/>
<polygon points="234.1,538.0 263.6,555.0 263.6,589.0 234.1,606.0 204.7,589.0 204.7,555.0"/>
<polygon points="293.0,538.0 322.4,555.0 322.4,589.0 293.0,606.0 263.6,589.0 263.6,555.0"/>
<polygon points="351.9,538.0 381.3,555.0 381.3,589.0 351.9,606.0 322.4,589.0 322.4,555.0"/>
<polygon points="410.8,538.0 440.2,555.0 440.2,589.0 410.8,606.0 381.3,589.0 381.3,555.0"/>
<polygon points="469.7,538.0 499.1,555.0 499.1,589.0 469.7,606.0 440.2,589.0 440.2,555.0"/>
<polygon points="528.6,538.0 558.0,555.0 558.0,589.0 528.6,606.0 499.1,589.0 499.1,555.0"/>
<polygon points="587.5,538.0 616.9,555.0 616.9,589.0 587.5,606.0 558.0,589.0 558.0,555.0"/>
<polygon points="646.3,538.0 675.8,555.0 675.8,589.0 646.3,606.0 616.9,589.0 616.9,555.0"/>
<polygon points="705.2,538.0 734.7,555.0 734.7,589.0 705.2,606.0 675.8,589.0 675.8,555.0"/>
<polygon points="764.1,538.0 793.6,555.0 793.6,589.0 764.1,606.0 734.7,589.0 734.7,555.0"/>
<polygon points="823.0,538.0 852.5,555.0 852.5,589.0 823.0,606.0 793.6,589.0 793.6,555.0"/>
<polygon points="881.9,538.0 911.3,555.0 911.3,589.0 881.9,606.0 852.5,589.0 852.5,555.0"/>
<polygon points="86.9,589.0 116.3,606.0 116.3,640.0 86.9,657.0 57.4,640.0 57.4,606.0"/>
<polygon points="145.8,589.0 175.2,606.0 175.2,640.0 145.8,657.0 116.3,640.0 116.3,606.0"/>
<polygon points="204.7,589.0 234.1,606.0 234.1,640.0 204.7,657.0 175.2,640.0 175.2,606.0"/>
<polygon points="263.6,589.0 293.0,606.0 293.0,640.0 263.6,657.0 234.1,640.0 234.1,606.0"/>
<polygon points="322.4,589.0 351.9,606.0 351.9,640.0 322.4,657.0 293.0,640.0 293.0,606.0"/>
<polygon points="381.3,589.0 410.8,606.0 410.8,640.0 381.3,657.0 351.9,640.0 351.9,606.0"/>
<polygon points="440.2,589.0 469.7,606.0 469.7,640.0 440.2,657.0 410.8,640.0 410.8,606.0"/>
<polygon points="499.1,589.0 528.6,606.0 528.6,640.0 499.1,657.0 469.7,640.0 469.7,606.0"/>
<polygon points="558.0,589.0 587.5,606.0 587.5,640.0 558.0,657.0 528.6,640.0 528.6,606.0"/>
<polygon points="616.9,589.0 646.3,606.0 646.3,640.0 616.9,657.0 587.5,640.0 587.5,606.0"/>
<polygon points="675.8,589.0 705.2,606.0 705.2,640.0 675.8,657.0 646.3,640.0 646.3,606.0"/>
<polygon points="734.7,589.0 764.1,606.0 764.1,640.0 734.7,657.0 705.2,640.0 705.2,606.0"/>
<polygon points="793.6,589.0 823.0,606.0 823.0,640.0 793.6,657.0 764.1,640.0 764.1,606.0"/>
<polygon points="852.5,589.0 881.9,606.0 881.9,640.0 852.5,657.0 823.0,640.0 823.0,606.0"/>
<polygon points="57.4,640.0 86.9,657.0 86.9,691.0 57.4,708.0 28.0,691.0 28.0,657.0"/>
<polygon points="116.3,640.0 145.8,657.0 145.8,691.0 116.3,708.0 86.9,691.0 86.9,657.0"/>
<polygon points="175.2,640.0 204.7,657.0 204.7,691.0 175.2,708.0 145.8,691.0 145.8,657.0"/>
<polygon points="234.1,640.0 263.6,657.0 263.6,691.0 234.1,708.0 204.7,691.0 204.7,657.0"/>
<polygon points="293.0,640.0 322.4,657.0 322.4,691.0 293.0,708.0 263.6,691.0 263.6,657.0"/>
<polygon points="351.9,640.0 381.3,657.0 381.3,691.0 351.9,708.0 322.4,691.0 322.4,657.0"/>
<polygon points="410.8,640.0 440.2,657.0 440.2,691.0 410.8,708.0 381.3,691.0 381.3,657.0"/>
<polygon points="469.7,640.0 499.1,657.0 499.1,691.0 469.7,708.0 440.2,691.0 440.2,657.0"/>
<polygon points="528.6,640.0 558.0,657.0 558.0,691.0 528.6,708.0 499.1,691.0 499.1,657.0"/>
<polygon points="587.5,640.0 616.9,657.0 616.9,691.0 587.5,708.0 558.0,691.0 558.0,657.0"/>
<polygon points="646.3,640.0 675.8,657.0 675.8,691.0 646.3,708.0 616.9,691.0 616.9,657.0"/>
<polygon points="705.2,640.0 734.7,657.0 734.7,691.0 705.2,708.0 675.8,691.0 675.8,657.0"/>
<polygon points="764.1,640.0 793.6,657.0 793.6,691.0 764.1,708.0 734.7,691.0 734.7,657.0"/>
<polygon points="823.0,640.0 852.5,657.0 852.5,691.0 823.0,708.0 793.6,691.0 793.6,657.0"/>
<polygon points="881.9,640.0 911.3,657.0 911.3,691.0 881.9,708.0 852.5,691.0 852.5,657.0"/>
</g>
<rect x="28" y="28" width="913" height="102" fill="#16240f" opacity="0.55"/>
<rect x="28" y="538" width="913" height="170" fill="#3a1e0c" opacity="0.6"/>
<text x="57" y="68" font-size="22" text-anchor="middle">🌲</text>
<text x="175" y="68" font-size="22" text-anchor="middle">🌲</text>
<text x="293" y="68" font-size="22" text-anchor="middle">🌲</text>
<text x="411" y="68" font-size="22" text-anchor="middle">🌲</text>
<text x="529" y="68" font-size="22" text-anchor="middle">🌲</text>
<text x="646" y="68" font-size="22" text-anchor="middle">🌲</text>
<text x="764" y="68" font-size="22" text-anchor="middle">🌲</text>
<text x="882" y="68" font-size="22" text-anchor="middle">🌲</text>
<text x="484" y="124" font-size="13" fill="#7da55f" font-weight="bold" text-anchor="middle">M I S T W O O D  —  corrupted fey emerge from this tree-line</text>
<rect x="249" y="193" width="30" height="44" rx="6" fill="#4b4640" stroke="#6f6a60" stroke-width="2"/>
<text x="264" y="253" font-size="11" fill="#9a9488" font-weight="normal" text-anchor="middle">standing stone</text>
<rect x="720" y="193" width="30" height="44" rx="6" fill="#4b4640" stroke="#6f6a60" stroke-width="2"/>
<text x="735" y="253" font-size="11" fill="#9a9488" font-weight="normal" text-anchor="middle">standing stone</text>
<text x="484" y="185" font-size="12" fill="#c98fd0" font-weight="normal" text-anchor="middle">Round 2: Wenneth Tree-Strides out of a standing stone</text>
<rect x="441" y="291" width="116" height="52" rx="5" fill="#5a3c1c" stroke="#8a5e2c" stroke-width="3" transform="rotate(-8 499 317)"/>
<text x="499" y="319" font-size="11" fill="#e8dcc0" font-weight="bold" text-anchor="middle">OVERTURNED DAIS</text>
<text x="499" y="333" font-size="10" fill="#c9a84c" font-weight="normal" text-anchor="middle">3/4 cover (+5 AC)</text>
<line x1="38" y1="470" x2="411" y2="470" stroke="#7a7068" stroke-width="9" stroke-linecap="round"/>
<line x1="557" y1="470" x2="931" y2="470" stroke="#7a7068" stroke-width="9" stroke-linecap="round"/>
<text x="229" y="458" font-size="11" fill="#cfc6b4" font-weight="bold" text-anchor="middle">LOW STONE WALL — half cover (+2 AC)</text>
<text x="484" y="474" font-size="10" fill="#9a9488" font-weight="normal" text-anchor="middle">gap</text>
<text x="740" y="488" font-size="10" fill="#c9a84c" font-weight="normal" text-anchor="middle">vault: 5 ft move or DC 10 Athletics</text>
<line x1="175" y1="348" x2="175" y2="386" stroke="#6f5a36" stroke-width="5"/>
<circle cx="175" cy="344" r="8" fill="#3a3326" stroke="#6f5a36" stroke-width="2"/>
<text x="175" y="400" font-size="10" fill="#9a9488" font-weight="normal" text-anchor="middle">lantern pole</text>
<line x1="558" y1="399" x2="558" y2="437" stroke="#6f5a36" stroke-width="5"/>
<circle cx="558" cy="395" r="8" fill="#3a3326" stroke="#6f5a36" stroke-width="2"/>
<text x="558" y="451" font-size="10" fill="#9a9488" font-weight="normal" text-anchor="middle">lantern pole</text>
<line x1="764" y1="348" x2="764" y2="386" stroke="#6f5a36" stroke-width="5"/>
<circle cx="764" cy="344" r="8" fill="#3a3326" stroke="#6f5a36" stroke-width="2"/>
<text x="764" y="400" font-size="10" fill="#9a9488" font-weight="normal" text-anchor="middle">lantern pole</text>
<text x="484" y="449" font-size="10" fill="#c9a84c" font-weight="normal" text-anchor="middle">lantern poles: topple DC 12 STR -> 10ft difficult terrain, or improvised weapon 1d8</text>
<rect x="36" y="546" width="897" height="149" rx="6" fill="#3a1e0c" stroke="#8a5e2c" stroke-width="3"/>
<rect x="462" y="540" width="44" height="12" fill="#c9a84c"/>
<text x="484" y="534" font-size="10" fill="#c9a84c" font-weight="bold" text-anchor="middle">DOOR</text>
<rect x="211" y="541" width="36" height="9" fill="#7da3c9"/>
<text x="229" y="534" font-size="9" fill="#7da3c9" font-weight="normal" text-anchor="middle">window</text>
<rect x="722" y="541" width="36" height="9" fill="#7da3c9"/>
<text x="740" y="534" font-size="9" fill="#7da3c9" font-weight="normal" text-anchor="middle">window</text>
<text x="484" y="614" font-size="20" fill="#e8dcc0" font-weight="bold" text-anchor="middle">T H E   H E A R T H</text>
<text x="484" y="636" font-size="11" fill="#d9b98a" font-weight="normal" text-anchor="middle">15 villagers + Belva inside — the door & windows are the fey</text>
<text x="484" y="652" font-size="11" fill="#d9b98a" font-weight="normal" text-anchor="middle">entry points AND what the party is protecting</text>
<text x="871" y="58" font-size="13" fill="#6a6a78" text-anchor="end">the dark Lantern Shrine is on the hill,</text>
<text x="871" y="74" font-size="13" fill="#6a6a78" text-anchor="end">far off — not reachable this fight ↗</text>
<rect x="965" y="28" width="252" height="680" rx="8" fill="#241f17" stroke="#5a4a2a" stroke-width="2"/>
<text x="981" y="54" font-size="15" fill="#c9a84c" font-weight="bold" font-style="normal">SESSION 1 — HOLD THE HEARTH</text>
<text x="981" y="76" font-size="11" fill="#9a9488" font-weight="normal" font-style="italic">Market Green, outside The Hearth</text>
<text x="981" y="94" font-size="11" fill="#9a9488" font-weight="normal" font-style="normal">1 hex = 5 ft   ·   ~75 x 65 ft arena</text>
<text x="981" y="127" font-size="12" fill="#e8dcc0" font-weight="bold" font-style="normal">ROSTER (375 XP, Moderate)</text>
<text x="981" y="146" font-size="11" fill="#d9c9a8" font-weight="normal" font-style="normal">· Wenneth — Dryad statblock, corrupted</text>
<text x="981" y="164" font-size="11" fill="#d9c9a8" font-weight="normal" font-style="normal">· Blossom-Seller — Bandit statblock</text>
<text x="981" y="182" font-size="11" fill="#d9c9a8" font-weight="normal" font-style="normal">· 3x Corrupted Pixie — Sprite statblock</text>
<text x="981" y="215" font-size="12" fill="#e8dcc0" font-weight="bold" font-style="normal">TERRAIN</text>
<text x="981" y="234" font-size="11" fill="#d9c9a8" font-weight="normal" font-style="normal">Low stone wall — half cover, +2 AC.</text>
<text x="981" y="252" font-size="10" fill="#9a9488" font-weight="normal" font-style="normal">  Vault it: 5 ft move or DC 10 Athletics.</text>
<text x="981" y="269" font-size="11" fill="#d9c9a8" font-weight="normal" font-style="normal">Overturned dais — 3/4 cover, +5 AC,</text>
<text x="981" y="287" font-size="10" fill="#9a9488" font-weight="normal" font-style="normal">  fits 2 Medium crouched.</text>
<text x="981" y="304" font-size="11" fill="#d9c9a8" font-weight="normal" font-style="normal">Lantern poles (x3) — topple DC 12 STR</text>
<text x="981" y="322" font-size="10" fill="#9a9488" font-weight="normal" font-style="normal">  -> 10 ft difficult terrain, or grab as</text>
<text x="981" y="339" font-size="10" fill="#9a9488" font-weight="normal" font-style="normal">  an improvised weapon (1d8 bludgeon).</text>
<text x="981" y="356" font-size="11" fill="#d9c9a8" font-weight="normal" font-style="normal">Standing stones — cover; Wenneth</text>
<text x="981" y="374" font-size="10" fill="#9a9488" font-weight="normal" font-style="normal">  Tree-Strides out of one in Round 2.</text>
<text x="981" y="406" font-size="12" fill="#e8dcc0" font-weight="bold" font-style="normal">LIGHT</text>
<text x="981" y="425" font-size="11" fill="#d9c9a8" font-weight="normal" font-style="normal">Dim across the green (firelight bleed).</text>
<text x="981" y="443" font-size="11" fill="#d9c9a8" font-weight="normal" font-style="normal">Bright within 10 ft of the door.</text>
<text x="981" y="461" font-size="11" fill="#d9c9a8" font-weight="normal" font-style="normal">Past the lantern-pole ring = darkness;</text>
<text x="981" y="479" font-size="10" fill="#9a9488" font-weight="normal" font-style="normal">  no-darkvision PCs: disadvantage.</text>
<text x="981" y="511" font-size="12" fill="#e8dcc0" font-weight="bold" font-style="normal">FLOW</text>
<text x="981" y="530" font-size="11" fill="#d9c9a8" font-weight="normal" font-style="normal">R1: 2 pixies thru door, 1 thru window.</text>
<text x="981" y="548" font-size="11" fill="#d9c9a8" font-weight="normal" font-style="normal">R2: Wenneth from a standing stone;</text>
<text x="981" y="566" font-size="10" fill="#9a9488" font-weight="normal" font-style="normal">  Blossom-Seller thru the door.</text>
<text x="981" y="583" font-size="11" fill="#d9c9a8" font-weight="normal" font-style="normal">R3: Yelvyne arrives wounded.</text>
</svg>