<svg xmlns="http://www.w3.org/2000/svg" width="892" height="1231" viewBox="0 0 892 1231" font-family="Georgia, serif">
<rect width="892" height="1231" fill="#1a1712"/>
<rect x="24" y="24" width="844" height="935" fill="#241f17" stroke="#5a4a2a" stroke-width="2"/>
<g stroke="#3a3326" stroke-width="1" fill="none">
<polygon points="82.0,52.5 69.0,75.0 43.0,75.0 30.0,52.5 43.0,30.0 69.0,30.0"/>
<polygon points="121.0,75.0 108.0,97.5 82.0,97.5 69.0,75.0 82.0,52.5 108.0,52.5"/>
<polygon points="160.0,52.5 147.0,75.0 121.0,75.0 108.0,52.5 121.0,30.0 147.0,30.0"/>
<polygon points="199.0,75.0 186.0,97.5 160.0,97.5 147.0,75.0 160.0,52.5 186.0,52.5"/>
<polygon points="238.0,52.5 225.0,75.0 199.0,75.0 186.0,52.5 199.0,30.0 225.0,30.0"/>
<polygon points="277.0,75.0 264.0,97.5 238.0,97.5 225.0,75.0 238.0,52.5 264.0,52.5"/>
<polygon points="316.0,52.5 303.0,75.0 277.0,75.0 264.0,52.5 277.0,30.0 303.0,30.0"/>
<polygon points="355.0,75.0 342.0,97.5 316.0,97.5 303.0,75.0 316.0,52.5 342.0,52.5"/>
<polygon points="394.0,52.5 381.0,75.0 355.0,75.0 342.0,52.5 355.0,30.0 381.0,30.0"/>
<polygon points="433.0,75.0 420.0,97.5 394.0,97.5 381.0,75.0 394.0,52.5 420.0,52.5"/>
<polygon points="472.0,52.5 459.0,75.0 433.0,75.0 420.0,52.5 433.0,30.0 459.0,30.0"/>
<polygon points="511.0,75.0 498.0,97.5 472.0,97.5 459.0,75.0 472.0,52.5 498.0,52.5"/>
<polygon points="550.0,52.5 537.0,75.0 511.0,75.0 498.0,52.5 511.0,30.0 537.0,30.0"/>
<polygon points="589.0,75.0 576.0,97.5 550.0,97.5 537.0,75.0 550.0,52.5 576.0,52.5"/>
<polygon points="628.0,52.5 615.0,75.0 589.0,75.0 576.0,52.5 589.0,30.0 615.0,30.0"/>
<polygon points="667.0,75.0 654.0,97.5 628.0,97.5 615.0,75.0 628.0,52.5 654.0,52.5"/>
<polygon points="706.0,52.5 693.0,75.0 667.0,75.0 654.0,52.5 667.0,30.0 693.0,30.0"/>
<polygon points="745.0,75.0 732.0,97.5 706.0,97.5 693.0,75.0 706.0,52.5 732.0,52.5"/>
<polygon points="784.0,52.5 771.0,75.0 745.0,75.0 732.0,52.5 745.0,30.0 771.0,30.0"/>
<polygon points="823.0,75.0 810.0,97.5 784.0,97.5 771.0,75.0 784.0,52.5 810.0,52.5"/>
<polygon points="862.0,52.5 849.0,75.0 823.0,75.0 810.0,52.5 823.0,30.0 849.0,30.0"/>
<polygon points="82.0,97.5 69.0,120.1 43.0,120.1 30.0,97.5 43.0,75.0 69.0,75.0"/>
<polygon points="121.0,120.1 108.0,142.6 82.0,142.6 69.0,120.1 82.0,97.5 108.0,97.5"/>
<polygon points="160.0,97.5 147.0,120.1 121.0,120.1 108.0,97.5 121.0,75.0 147.0,75.0"/>
<polygon points="199.0,120.1 186.0,142.6 160.0,142.6 147.0,120.1 160.0,97.5 186.0,97.5"/>
<polygon points="238.0,97.5 225.0,120.1 199.0,120.1 186.0,97.5 199.0,75.0 225.0,75.0"/>
<polygon points="277.0,120.1 264.0,142.6 238.0,142.6 225.0,120.1 238.0,97.5 264.0,97.5"/>
<polygon points="316.0,97.5 303.0,120.1 277.0,120.1 264.0,97.5 277.0,75.0 303.0,75.0"/>
<polygon points="355.0,120.1 342.0,142.6 316.0,142.6 303.0,120.1 316.0,97.5 342.0,97.5"/>
<polygon points="394.0,97.5 381.0,120.1 355.0,120.1 342.0,97.5 355.0,75.0 381.0,75.0"/>
<polygon points="433.0,120.1 420.0,142.6 394.0,142.6 381.0,120.1 394.0,97.5 420.0,97.5"/>
<polygon points="472.0,97.5 459.0,120.1 433.0,120.1 420.0,97.5 433.0,75.0 459.0,75.0"/>
<polygon points="511.0,120.1 498.0,142.6 472.0,142.6 459.0,120.1 472.0,97.5 498.0,97.5"/>
<polygon points="550.0,97.5 537.0,120.1 511.0,120.1 498.0,97.5 511.0,75.0 537.0,75.0"/>
<polygon points="589.0,120.1 576.0,142.6 550.0,142.6 537.0,120.1 550.0,97.5 576.0,97.5"/>
<polygon points="628.0,97.5 615.0,120.1 589.0,120.1 576.0,97.5 589.0,75.0 615.0,75.0"/>
<polygon points="667.0,120.1 654.0,142.6 628.0,142.6 615.0,120.1 628.0,97.5 654.0,97.5"/>
<polygon points="706.0,97.5 693.0,120.1 667.0,120.1 654.0,97.5 667.0,75.0 693.0,75.0"/>
<polygon points="745.0,120.1 732.0,142.6 706.0,142.6 693.0,120.1 706.0,97.5 732.0,97.5"/>
<polygon points="784.0,97.5 771.0,120.1 745.0,120.1 732.0,97.5 745.0,75.0 771.0,75.0"/>
<polygon points="823.0,120.1 810.0,142.6 784.0,142.6 771.0,120.1 784.0,97.5 810.0,97.5"/>
<polygon points="862.0,97.5 849.0,120.1 823.0,120.1 810.0,97.5 823.0,75.0 849.0,75.0"/>
<polygon points="82.0,142.6 69.0,165.1 43.0,165.1 30.0,142.6 43.0,120.1 69.0,120.1"/>
<polygon points="121.0,165.1 108.0,187.6 82.0,187.6 69.0,165.1 82.0,142.6 108.0,142.6"/>
<polygon points="160.0,142.6 147.0,165.1 121.0,165.1 108.0,142.6 121.0,120.1 147.0,120.1"/>
<polygon points="199.0,165.1 186.0,187.6 160.0,187.6 147.0,165.1 160.0,142.6 186.0,142.6"/>
<polygon points="238.0,142.6 225.0,165.1 199.0,165.1 186.0,142.6 199.0,120.1 225.0,120.1"/>
<polygon points="277.0,165.1 264.0,187.6 238.0,187.6 225.0,165.1 238.0,142.6 264.0,142.6"/>
<polygon points="316.0,142.6 303.0,165.1 277.0,165.1 264.0,142.6 277.0,120.1 303.0,120.1"/>
<polygon points="355.0,165.1 342.0,187.6 316.0,187.6 303.0,165.1 316.0,142.6 342.0,142.6"/>
<polygon points="394.0,142.6 381.0,165.1 355.0,165.1 342.0,142.6 355.0,120.1 381.0,120.1"/>
<polygon points="433.0,165.1 420.0,187.6 394.0,187.6 381.0,165.1 394.0,142.6 420.0,142.6"/>
<polygon points="472.0,142.6 459.0,165.1 433.0,165.1 420.0,142.6 433.0,120.1 459.0,120.1"/>
<polygon points="511.0,165.1 498.0,187.6 472.0,187.6 459.0,165.1 472.0,142.6 498.0,142.6"/>
<polygon points="550.0,142.6 537.0,165.1 511.0,165.1 498.0,142.6 511.0,120.1 537.0,120.1"/>
<polygon points="589.0,165.1 576.0,187.6 550.0,187.6 537.0,165.1 550.0,142.6 576.0,142.6"/>
<polygon points="628.0,142.6 615.0,165.1 589.0,165.1 576.0,142.6 589.0,120.1 615.0,120.1"/>
<polygon points="667.0,165.1 654.0,187.6 628.0,187.6 615.0,165.1 628.0,142.6 654.0,142.6"/>
<polygon points="706.0,142.6 693.0,165.1 667.0,165.1 654.0,142.6 667.0,120.1 693.0,120.1"/>
<polygon points="745.0,165.1 732.0,187.6 706.0,187.6 693.0,165.1 706.0,142.6 732.0,142.6"/>
<polygon points="784.0,142.6 771.0,165.1 745.0,165.1 732.0,142.6 745.0,120.1 771.0,120.1"/>
<polygon points="823.0,165.1 810.0,187.6 784.0,187.6 771.0,165.1 784.0,142.6 810.0,142.6"/>
<polygon points="862.0,142.6 849.0,165.1 823.0,165.1 810.0,142.6 823.0,120.1 849.0,120.1"/>
<polygon points="82.0,187.6 69.0,210.1 43.0,210.1 30.0,187.6 43.0,165.1 69.0,165.1"/>
<polygon points="121.0,210.1 108.0,232.6 82.0,232.6 69.0,210.1 82.0,187.6 108.0,187.6"/>
<polygon points="160.0,187.6 147.0,210.1 121.0,210.1 108.0,187.6 121.0,165.1 147.0,165.1"/>
<polygon points="199.0,210.1 186.0,232.6 160.0,232.6 147.0,210.1 160.0,187.6 186.0,187.6"/>
<polygon points="238.0,187.6 225.0,210.1 199.0,210.1 186.0,187.6 199.0,165.1 225.0,165.1"/>
<polygon points="277.0,210.1 264.0,232.6 238.0,232.6 225.0,210.1 238.0,187.6 264.0,187.6"/>
<polygon points="316.0,187.6 303.0,210.1 277.0,210.1 264.0,187.6 277.0,165.1 303.0,165.1"/>
<polygon points="355.0,210.1 342.0,232.6 316.0,232.6 303.0,210.1 316.0,187.6 342.0,187.6"/>
<polygon points="394.0,187.6 381.0,210.1 355.0,210.1 342.0,187.6 355.0,165.1 381.0,165.1"/>
<polygon points="433.0,210.1 420.0,232.6 394.0,232.6 381.0,210.1 394.0,187.6 420.0,187.6"/>
<polygon points="472.0,187.6 459.0,210.1 433.0,210.1 420.0,187.6 433.0,165.1 459.0,165.1"/>
<polygon points="511.0,210.1 498.0,232.6 472.0,232.6 459.0,210.1 472.0,187.6 498.0,187.6"/>
<polygon points="550.0,187.6 537.0,210.1 511.0,210.1 498.0,187.6 511.0,165.1 537.0,165.1"/>
<polygon points="589.0,210.1 576.0,232.6 550.0,232.6 537.0,210.1 550.0,187.6 576.0,187.6"/>
<polygon points="628.0,187.6 615.0,210.1 589.0,210.1 576.0,187.6 589.0,165.1 615.0,165.1"/>
<polygon points="667.0,210.1 654.0,232.6 628.0,232.6 615.0,210.1 628.0,187.6 654.0,187.6"/>
<polygon points="706.0,187.6 693.0,210.1 667.0,210.1 654.0,187.6 667.0,165.1 693.0,165.1"/>
<polygon points="745.0,210.1 732.0,232.6 706.0,232.6 693.0,210.1 706.0,187.6 732.0,187.6"/>
<polygon points="784.0,187.6 771.0,210.1 745.0,210.1 732.0,187.6 745.0,165.1 771.0,165.1"/>
<polygon points="823.0,210.1 810.0,232.6 784.0,232.6 771.0,210.1 784.0,187.6 810.0,187.6"/>
<polygon points="862.0,187.6 849.0,210.1 823.0,210.1 810.0,187.6 823.0,165.1 849.0,165.1"/>
<polygon points="82.0,232.6 69.0,255.2 43.0,255.2 30.0,232.6 43.0,210.1 69.0,210.1"/>
<polygon points="121.0,255.2 108.0,277.7 82.0,277.7 69.0,255.2 82.0,232.6 108.0,232.6"/>
<polygon points="160.0,232.6 147.0,255.2 121.0,255.2 108.0,232.6 121.0,210.1 147.0,210.1"/>
<polygon points="199.0,255.2 186.0,277.7 160.0,277.7 147.0,255.2 160.0,232.6 186.0,232.6"/>
<polygon points="238.0,232.6 225.0,255.2 199.0,255.2 186.0,232.6 199.0,210.1 225.0,210.1"/>
<polygon points="277.0,255.2 264.0,277.7 238.0,277.7 225.0,255.2 238.0,232.6 264.0,232.6"/>
<polygon points="316.0,232.6 303.0,255.2 277.0,255.2 264.0,232.6 277.0,210.1 303.0,210.1"/>
<polygon points="355.0,255.2 342.0,277.7 316.0,277.7 303.0,255.2 316.0,232.6 342.0,232.6"/>
<polygon points="394.0,232.6 381.0,255.2 355.0,255.2 342.0,232.6 355.0,210.1 381.0,210.1"/>
<polygon points="433.0,255.2 420.0,277.7 394.0,277.7 381.0,255.2 394.0,232.6 420.0,232.6"/>
<polygon points="472.0,232.6 459.0,255.2 433.0,255.2 420.0,232.6 433.0,210.1 459.0,210.1"/>
<polygon points="511.0,255.2 498.0,277.7 472.0,277.7 459.0,255.2 472.0,232.6 498.0,232.6"/>
<polygon points="550.0,232.6 537.0,255.2 511.0,255.2 498.0,232.6 511.0,210.1 537.0,210.1"/>
<polygon points="589.0,255.2 576.0,277.7 550.0,277.7 537.0,255.2 550.0,232.6 576.0,232.6"/>
<polygon points="628.0,232.6 615.0,255.2 589.0,255.2 576.0,232.6 589.0,210.1 615.0,210.1"/>
<polygon points="667.0,255.2 654.0,277.7 628.0,277.7 615.0,255.2 628.0,232.6 654.0,232.6"/>
<polygon points="706.0,232.6 693.0,255.2 667.0,255.2 654.0,232.6 667.0,210.1 693.0,210.1"/>
<polygon points="745.0,255.2 732.0,277.7 706.0,277.7 693.0,255.2 706.0,232.6 732.0,232.6"/>
<polygon points="784.0,232.6 771.0,255.2 745.0,255.2 732.0,232.6 745.0,210.1 771.0,210.1"/>
<polygon points="823.0,255.2 810.0,277.7 784.0,277.7 771.0,255.2 784.0,232.6 810.0,232.6"/>
<polygon points="862.0,232.6 849.0,255.2 823.0,255.2 810.0,232.6 823.0,210.1 849.0,210.1"/>
<polygon points="82.0,277.7 69.0,300.2 43.0,300.2 30.0,277.7 43.0,255.2 69.0,255.2"/>
<polygon points="121.0,300.2 108.0,322.7 82.0,322.7 69.0,300.2 82.0,277.7 108.0,277.7"/>
<polygon points="160.0,277.7 147.0,300.2 121.0,300.2 108.0,277.7 121.0,255.2 147.0,255.2"/>
<polygon points="199.0,300.2 186.0,322.7 160.0,322.7 147.0,300.2 160.0,277.7 186.0,277.7"/>
<polygon points="238.0,277.7 225.0,300.2 199.0,300.2 186.0,277.7 199.0,255.2 225.0,255.2"/>
<polygon points="277.0,300.2 264.0,322.7 238.0,322.7 225.0,300.2 238.0,277.7 264.0,277.7"/>
<polygon points="316.0,277.7 303.0,300.2 277.0,300.2 264.0,277.7 277.0,255.2 303.0,255.2"/>
<polygon points="355.0,300.2 342.0,322.7 316.0,322.7 303.0,300.2 316.0,277.7 342.0,277.7"/>
<polygon points="394.0,277.7 381.0,300.2 355.0,300.2 342.0,277.7 355.0,255.2 381.0,255.2"/>
<polygon points="433.0,300.2 420.0,322.7 394.0,322.7 381.0,300.2 394.0,277.7 420.0,277.7"/>
<polygon points="472.0,277.7 459.0,300.2 433.0,300.2 420.0,277.7 433.0,255.2 459.0,255.2"/>
<polygon points="511.0,300.2 498.0,322.7 472.0,322.7 459.0,300.2 472.0,277.7 498.0,277.7"/>
<polygon points="550.0,277.7 537.0,300.2 511.0,300.2 498.0,277.7 511.0,255.2 537.0,255.2"/>
<polygon points="589.0,300.2 576.0,322.7 550.0,322.7 537.0,300.2 550.0,277.7 576.0,277.7"/>
<polygon points="628.0,277.7 615.0,300.2 589.0,300.2 576.0,277.7 589.0,255.2 615.0,255.2"/>
<polygon points="667.0,300.2 654.0,322.7 628.0,322.7 615.0,300.2 628.0,277.7 654.0,277.7"/>
<polygon points="706.0,277.7 693.0,300.2 667.0,300.2 654.0,277.7 667.0,255.2 693.0,255.2"/>
<polygon points="745.0,300.2 732.0,322.7 706.0,322.7 693.0,300.2 706.0,277.7 732.0,277.7"/>
<polygon points="784.0,277.7 771.0,300.2 745.0,300.2 732.0,277.7 745.0,255.2 771.0,255.2"/>
<polygon points="823.0,300.2 810.0,322.7 784.0,322.7 771.0,300.2 784.0,277.7 810.0,277.7"/>
<polygon points="862.0,277.7 849.0,300.2 823.0,300.2 810.0,277.7 823.0,255.2 849.0,255.2"/>
<polygon points="82.0,322.7 69.0,345.2 43.0,345.2 30.0,322.7 43.0,300.2 69.0,300.2"/>
<polygon points="121.0,345.2 108.0,367.7 82.0,367.7 69.0,345.2 82.0,322.7 108.0,322.7"/>
<polygon points="160.0,322.7 147.0,345.2 121.0,345.2 108.0,322.7 121.0,300.2 147.0,300.2"/>
<polygon points="199.0,345.2 186.0,367.7 160.0,367.7 147.0,345.2 160.0,322.7 186.0,322.7"/>
<polygon points="238.0,322.7 225.0,345.2 199.0,345.2 186.0,322.7 199.0,300.2 225.0,300.2"/>
<polygon points="277.0,345.2 264.0,367.7 238.0,367.7 225.0,345.2 238.0,322.7 264.0,322.7"/>
<polygon points="316.0,322.7 303.0,345.2 277.0,345.2 264.0,322.7 277.0,300.2 303.0,300.2"/>
<polygon points="355.0,345.2 342.0,367.7 316.0,367.7 303.0,345.2 316.0,322.7 342.0,322.7"/>
<polygon points="394.0,322.7 381.0,345.2 355.0,345.2 342.0,322.7 355.0,300.2 381.0,300.2"/>
<polygon points="433.0,345.2 420.0,367.7 394.0,367.7 381.0,345.2 394.0,322.7 420.0,322.7"/>
<polygon points="472.0,322.7 459.0,345.2 433.0,345.2 420.0,322.7 433.0,300.2 459.0,300.2"/>
<polygon points="511.0,345.2 498.0,367.7 472.0,367.7 459.0,345.2 472.0,322.7 498.0,322.7"/>
<polygon points="550.0,322.7 537.0,345.2 511.0,345.2 498.0,322.7 511.0,300.2 537.0,300.2"/>
<polygon points="589.0,345.2 576.0,367.7 550.0,367.7 537.0,345.2 550.0,322.7 576.0,322.7"/>
<polygon points="628.0,322.7 615.0,345.2 589.0,345.2 576.0,322.7 589.0,300.2 615.0,300.2"/>
<polygon points="667.0,345.2 654.0,367.7 628.0,367.7 615.0,345.2 628.0,322.7 654.0,322.7"/>
<polygon points="706.0,322.7 693.0,345.2 667.0,345.2 654.0,322.7 667.0,300.2 693.0,300.2"/>
<polygon points="745.0,345.2 732.0,367.7 706.0,367.7 693.0,345.2 706.0,322.7 732.0,322.7"/>
<polygon points="784.0,322.7 771.0,345.2 745.0,345.2 732.0,322.7 745.0,300.2 771.0,300.2"/>
<polygon points="823.0,345.2 810.0,367.7 784.0,367.7 771.0,345.2 784.0,322.7 810.0,322.7"/>
<polygon points="862.0,322.7 849.0,345.2 823.0,345.2 810.0,322.7 823.0,300.2 849.0,300.2"/>
<polygon points="82.0,367.7 69.0,390.3 43.0,390.3 30.0,367.7 43.0,345.2 69.0,345.2"/>
<polygon points="121.0,390.3 108.0,412.8 82.0,412.8 69.0,390.3 82.0,367.7 108.0,367.7"/>
<polygon points="160.0,367.7 147.0,390.3 121.0,390.3 108.0,367.7 121.0,345.2 147.0,345.2"/>
<polygon points="199.0,390.3 186.0,412.8 160.0,412.8 147.0,390.3 160.0,367.7 186.0,367.7"/>
<polygon points="238.0,367.7 225.0,390.3 199.0,390.3 186.0,367.7 199.0,345.2 225.0,345.2"/>
<polygon points="277.0,390.3 264.0,412.8 238.0,412.8 225.0,390.3 238.0,367.7 264.0,367.7"/>
<polygon points="316.0,367.7 303.0,390.3 277.0,390.3 264.0,367.7 277.0,345.2 303.0,345.2"/>
<polygon points="355.0,390.3 342.0,412.8 316.0,412.8 303.0,390.3 316.0,367.7 342.0,367.7"/>
<polygon points="394.0,367.7 381.0,390.3 355.0,390.3 342.0,367.7 355.0,345.2 381.0,345.2"/>
<polygon points="433.0,390.3 420.0,412.8 394.0,412.8 381.0,390.3 394.0,367.7 420.0,367.7"/>
<polygon points="472.0,367.7 459.0,390.3 433.0,390.3 420.0,367.7 433.0,345.2 459.0,345.2"/>
<polygon points="511.0,390.3 498.0,412.8 472.0,412.8 459.0,390.3 472.0,367.7 498.0,367.7"/>
<polygon points="550.0,367.7 537.0,390.3 511.0,390.3 498.0,367.7 511.0,345.2 537.0,345.2"/>
<polygon points="589.0,390.3 576.0,412.8 550.0,412.8 537.0,390.3 550.0,367.7 576.0,367.7"/>
<polygon points="628.0,367.7 615.0,390.3 589.0,390.3 576.0,367.7 589.0,345.2 615.0,345.2"/>
<polygon points="667.0,390.3 654.0,412.8 628.0,412.8 615.0,390.3 628.0,367.7 654.0,367.7"/>
<polygon points="706.0,367.7 693.0,390.3 667.0,390.3 654.0,367.7 667.0,345.2 693.0,345.2"/>
<polygon points="745.0,390.3 732.0,412.8 706.0,412.8 693.0,390.3 706.0,367.7 732.0,367.7"/>
<polygon points="784.0,367.7 771.0,390.3 745.0,390.3 732.0,367.7 745.0,345.2 771.0,345.2"/>
<polygon points="823.0,390.3 810.0,412.8 784.0,412.8 771.0,390.3 784.0,367.7 810.0,367.7"/>
<polygon points="862.0,367.7 849.0,390.3 823.0,390.3 810.0,367.7 823.0,345.2 849.0,345.2"/>
<polygon points="82.0,412.8 69.0,435.3 43.0,435.3 30.0,412.8 43.0,390.3 69.0,390.3"/>
<polygon points="121.0,435.3 108.0,457.8 82.0,457.8 69.0,435.3 82.0,412.8 108.0,412.8"/>
<polygon points="160.0,412.8 147.0,435.3 121.0,435.3 108.0,412.8 121.0,390.3 147.0,390.3"/>
<polygon points="199.0,435.3 186.0,457.8 160.0,457.8 147.0,435.3 160.0,412.8 186.0,412.8"/>
<polygon points="238.0,412.8 225.0,435.3 199.0,435.3 186.0,412.8 199.0,390.3 225.0,390.3"/>
<polygon points="277.0,435.3 264.0,457.8 238.0,457.8 225.0,435.3 238.0,412.8 264.0,412.8"/>
<polygon points="316.0,412.8 303.0,435.3 277.0,435.3 264.0,412.8 277.0,390.3 303.0,390.3"/>
<polygon points="355.0,435.3 342.0,457.8 316.0,457.8 303.0,435.3 316.0,412.8 342.0,412.8"/>
<polygon points="394.0,412.8 381.0,435.3 355.0,435.3 342.0,412.8 355.0,390.3 381.0,390.3"/>
<polygon points="433.0,435.3 420.0,457.8 394.0,457.8 381.0,435.3 394.0,412.8 420.0,412.8"/>
<polygon points="472.0,412.8 459.0,435.3 433.0,435.3 420.0,412.8 433.0,390.3 459.0,390.3"/>
<polygon points="511.0,435.3 498.0,457.8 472.0,457.8 459.0,435.3 472.0,412.8 498.0,412.8"/>
<polygon points="550.0,412.8 537.0,435.3 511.0,435.3 498.0,412.8 511.0,390.3 537.0,390.3"/>
<polygon points="589.0,435.3 576.0,457.8 550.0,457.8 537.0,435.3 550.0,412.8 576.0,412.8"/>
<polygon points="628.0,412.8 615.0,435.3 589.0,435.3 576.0,412.8 589.0,390.3 615.0,390.3"/>
<polygon points="667.0,435.3 654.0,457.8 628.0,457.8 615.0,435.3 628.0,412.8 654.0,412.8"/>
<polygon points="706.0,412.8 693.0,435.3 667.0,435.3 654.0,412.8 667.0,390.3 693.0,390.3"/>
<polygon points="745.0,435.3 732.0,457.8 706.0,457.8 693.0,435.3 706.0,412.8 732.0,412.8"/>
<polygon points="784.0,412.8 771.0,435.3 745.0,435.3 732.0,412.8 745.0,390.3 771.0,390.3"/>
<polygon points="823.0,435.3 810.0,457.8 784.0,457.8 771.0,435.3 784.0,412.8 810.0,412.8"/>
<polygon points="862.0,412.8 849.0,435.3 823.0,435.3 810.0,412.8 823.0,390.3 849.0,390.3"/>
<polygon points="82.0,457.8 69.0,480.3 43.0,480.3 30.0,457.8 43.0,435.3 69.0,435.3"/>
<polygon points="121.0,480.3 108.0,502.8 82.0,502.8 69.0,480.3 82.0,457.8 108.0,457.8"/>
<polygon points="160.0,457.8 147.0,480.3 121.0,480.3 108.0,457.8 121.0,435.3 147.0,435.3"/>
<polygon points="199.0,480.3 186.0,502.8 160.0,502.8 147.0,480.3 160.0,457.8 186.0,457.8"/>
<polygon points="238.0,457.8 225.0,480.3 199.0,480.3 186.0,457.8 199.0,435.3 225.0,435.3"/>
<polygon points="277.0,480.3 264.0,502.8 238.0,502.8 225.0,480.3 238.0,457.8 264.0,457.8"/>
<polygon points="316.0,457.8 303.0,480.3 277.0,480.3 264.0,457.8 277.0,435.3 303.0,435.3"/>
<polygon points="355.0,480.3 342.0,502.8 316.0,502.8 303.0,480.3 316.0,457.8 342.0,457.8"/>
<polygon points="394.0,457.8 381.0,480.3 355.0,480.3 342.0,457.8 355.0,435.3 381.0,435.3"/>
<polygon points="433.0,480.3 420.0,502.8 394.0,502.8 381.0,480.3 394.0,457.8 420.0,457.8"/>
<polygon points="472.0,457.8 459.0,480.3 433.0,480.3 420.0,457.8 433.0,435.3 459.0,435.3"/>
<polygon points="511.0,480.3 498.0,502.8 472.0,502.8 459.0,480.3 472.0,457.8 498.0,457.8"/>
<polygon points="550.0,457.8 537.0,480.3 511.0,480.3 498.0,457.8 511.0,435.3 537.0,435.3"/>
<polygon points="589.0,480.3 576.0,502.8 550.0,502.8 537.0,480.3 550.0,457.8 576.0,457.8"/>
<polygon points="628.0,457.8 615.0,480.3 589.0,480.3 576.0,457.8 589.0,435.3 615.0,435.3"/>
<polygon points="667.0,480.3 654.0,502.8 628.0,502.8 615.0,480.3 628.0,457.8 654.0,457.8"/>
<polygon points="706.0,457.8 693.0,480.3 667.0,480.3 654.0,457.8 667.0,435.3 693.0,435.3"/>
<polygon points="745.0,480.3 732.0,502.8 706.0,502.8 693.0,480.3 706.0,457.8 732.0,457.8"/>
<polygon points="784.0,457.8 771.0,480.3 745.0,480.3 732.0,457.8 745.0,435.3 771.0,435.3"/>
<polygon points="823.0,480.3 810.0,502.8 784.0,502.8 771.0,480.3 784.0,457.8 810.0,457.8"/>
<polygon points="862.0,457.8 849.0,480.3 823.0,480.3 810.0,457.8 823.0,435.3 849.0,435.3"/>
<polygon points="82.0,502.8 69.0,525.4 43.0,525.4 30.0,502.8 43.0,480.3 69.0,480.3"/>
<polygon points="121.0,525.4 108.0,547.9 82.0,547.9 69.0,525.4 82.0,502.8 108.0,502.8"/>
<polygon points="160.0,502.8 147.0,525.4 121.0,525.4 108.0,502.8 121.0,480.3 147.0,480.3"/>
<polygon points="199.0,525.4 186.0,547.9 160.0,547.9 147.0,525.4 160.0,502.8 186.0,502.8"/>
<polygon points="238.0,502.8 225.0,525.4 199.0,525.4 186.0,502.8 199.0,480.3 225.0,480.3"/>
<polygon points="277.0,525.4 264.0,547.9 238.0,547.9 225.0,525.4 238.0,502.8 264.0,502.8"/>
<polygon points="316.0,502.8 303.0,525.4 277.0,525.4 264.0,502.8 277.0,480.3 303.0,480.3"/>
<polygon points="355.0,525.4 342.0,547.9 316.0,547.9 303.0,525.4 316.0,502.8 342.0,502.8"/>
<polygon points="394.0,502.8 381.0,525.4 355.0,525.4 342.0,502.8 355.0,480.3 381.0,480.3"/>
<polygon points="433.0,525.4 420.0,547.9 394.0,547.9 381.0,525.4 394.0,502.8 420.0,502.8"/>
<polygon points="472.0,502.8 459.0,525.4 433.0,525.4 420.0,502.8 433.0,480.3 459.0,480.3"/>
<polygon points="511.0,525.4 498.0,547.9 472.0,547.9 459.0,525.4 472.0,502.8 498.0,502.8"/>
<polygon points="550.0,502.8 537.0,525.4 511.0,525.4 498.0,502.8 511.0,480.3 537.0,480.3"/>
<polygon points="589.0,525.4 576.0,547.9 550.0,547.9 537.0,525.4 550.0,502.8 576.0,502.8"/>
<polygon points="628.0,502.8 615.0,525.4 589.0,525.4 576.0,502.8 589.0,480.3 615.0,480.3"/>
<polygon points="667.0,525.4 654.0,547.9 628.0,547.9 615.0,525.4 628.0,502.8 654.0,502.8"/>
<polygon points="706.0,502.8 693.0,525.4 667.0,525.4 654.0,502.8 667.0,480.3 693.0,480.3"/>
<polygon points="745.0,525.4 732.0,547.9 706.0,547.9 693.0,525.4 706.0,502.8 732.0,502.8"/>
<polygon points="784.0,502.8 771.0,525.4 745.0,525.4 732.0,502.8 745.0,480.3 771.0,480.3"/>
<polygon points="823.0,525.4 810.0,547.9 784.0,547.9 771.0,525.4 784.0,502.8 810.0,502.8"/>
<polygon points="862.0,502.8 849.0,525.4 823.0,525.4 810.0,502.8 823.0,480.3 849.0,480.3"/>
<polygon points="82.0,547.9 69.0,570.4 43.0,570.4 30.0,547.9 43.0,525.4 69.0,525.4"/>
<polygon points="121.0,570.4 108.0,592.9 82.0,592.9 69.0,570.4 82.0,547.9 108.0,547.9"/>
<polygon points="160.0,547.9 147.0,570.4 121.0,570.4 108.0,547.9 121.0,525.4 147.0,525.4"/>
<polygon points="199.0,570.4 186.0,592.9 160.0,592.9 147.0,570.4 160.0,547.9 186.0,547.9"/>
<polygon points="238.0,547.9 225.0,570.4 199.0,570.4 186.0,547.9 199.0,525.4 225.0,525.4"/>
<polygon points="277.0,570.4 264.0,592.9 238.0,592.9 225.0,570.4 238.0,547.9 264.0,547.9"/>
<polygon points="316.0,547.9 303.0,570.4 277.0,570.4 264.0,547.9 277.0,525.4 303.0,525.4"/>
<polygon points="355.0,570.4 342.0,592.9 316.0,592.9 303.0,570.4 316.0,547.9 342.0,547.9"/>
<polygon points="394.0,547.9 381.0,570.4 355.0,570.4 342.0,547.9 355.0,525.4 381.0,525.4"/>
<polygon points="433.0,570.4 420.0,592.9 394.0,592.9 381.0,570.4 394.0,547.9 420.0,547.9"/>
<polygon points="472.0,547.9 459.0,570.4 433.0,570.4 420.0,547.9 433.0,525.4 459.0,525.4"/>
<polygon points="511.0,570.4 498.0,592.9 472.0,592.9 459.0,570.4 472.0,547.9 498.0,547.9"/>
<polygon points="550.0,547.9 537.0,570.4 511.0,570.4 498.0,547.9 511.0,525.4 537.0,525.4"/>
<polygon points="589.0,570.4 576.0,592.9 550.0,592.9 537.0,570.4 550.0,547.9 576.0,547.9"/>
<polygon points="628.0,547.9 615.0,570.4 589.0,570.4 576.0,547.9 589.0,525.4 615.0,525.4"/>
<polygon points="667.0,570.4 654.0,592.9 628.0,592.9 615.0,570.4 628.0,547.9 654.0,547.9"/>
<polygon points="706.0,547.9 693.0,570.4 667.0,570.4 654.0,547.9 667.0,525.4 693.0,525.4"/>
<polygon points="745.0,570.4 732.0,592.9 706.0,592.9 693.0,570.4 706.0,547.9 732.0,547.9"/>
<polygon points="784.0,547.9 771.0,570.4 745.0,570.4 732.0,547.9 745.0,525.4 771.0,525.4"/>
<polygon points="823.0,570.4 810.0,592.9 784.0,592.9 771.0,570.4 784.0,547.9 810.0,547.9"/>
<polygon points="862.0,547.9 849.0,570.4 823.0,570.4 810.0,547.9 823.0,525.4 849.0,525.4"/>
<polygon points="82.0,592.9 69.0,615.4 43.0,615.4 30.0,592.9 43.0,570.4 69.0,570.4"/>
<polygon points="121.0,615.4 108.0,637.9 82.0,637.9 69.0,615.4 82.0,592.9 108.0,592.9"/>
<polygon points="160.0,592.9 147.0,615.4 121.0,615.4 108.0,592.9 121.0,570.4 147.0,570.4"/>
<polygon points="199.0,615.4 186.0,637.9 160.0,637.9 147.0,615.4 160.0,592.9 186.0,592.9"/>
<polygon points="238.0,592.9 225.0,615.4 199.0,615.4 186.0,592.9 199.0,570.4 225.0,570.4"/>
<polygon points="277.0,615.4 264.0,637.9 238.0,637.9 225.0,615.4 238.0,592.9 264.0,592.9"/>
<polygon points="316.0,592.9 303.0,615.4 277.0,615.4 264.0,592.9 277.0,570.4 303.0,570.4"/>
<polygon points="355.0,615.4 342.0,637.9 316.0,637.9 303.0,615.4 316.0,592.9 342.0,592.9"/>
<polygon points="394.0,592.9 381.0,615.4 355.0,615.4 342.0,592.9 355.0,570.4 381.0,570.4"/>
<polygon points="433.0,615.4 420.0,637.9 394.0,637.9 381.0,615.4 394.0,592.9 420.0,592.9"/>
<polygon points="472.0,592.9 459.0,615.4 433.0,615.4 420.0,592.9 433.0,570.4 459.0,570.4"/>
<polygon points="511.0,615.4 498.0,637.9 472.0,637.9 459.0,615.4 472.0,592.9 498.0,592.9"/>
<polygon points="550.0,592.9 537.0,615.4 511.0,615.4 498.0,592.9 511.0,570.4 537.0,570.4"/>
<polygon points="589.0,615.4 576.0,637.9 550.0,637.9 537.0,615.4 550.0,592.9 576.0,592.9"/>
<polygon points="628.0,592.9 615.0,615.4 589.0,615.4 576.0,592.9 589.0,570.4 615.0,570.4"/>
<polygon points="667.0,615.4 654.0,637.9 628.0,637.9 615.0,615.4 628.0,592.9 654.0,592.9"/>
<polygon points="706.0,592.9 693.0,615.4 667.0,615.4 654.0,592.9 667.0,570.4 693.0,570.4"/>
<polygon points="745.0,615.4 732.0,637.9 706.0,637.9 693.0,615.4 706.0,592.9 732.0,592.9"/>
<polygon points="784.0,592.9 771.0,615.4 745.0,615.4 732.0,592.9 745.0,570.4 771.0,570.4"/>
<polygon points="823.0,615.4 810.0,637.9 784.0,637.9 771.0,615.4 784.0,592.9 810.0,592.9"/>
<polygon points="862.0,592.9 849.0,615.4 823.0,615.4 810.0,592.9 823.0,570.4 849.0,570.4"/>
<polygon points="82.0,637.9 69.0,660.5 43.0,660.5 30.0,637.9 43.0,615.4 69.0,615.4"/>
<polygon points="121.0,660.5 108.0,683.0 82.0,683.0 69.0,660.5 82.0,637.9 108.0,637.9"/>
<polygon points="160.0,637.9 147.0,660.5 121.0,660.5 108.0,637.9 121.0,615.4 147.0,615.4"/>
<polygon points="199.0,660.5 186.0,683.0 160.0,683.0 147.0,660.5 160.0,637.9 186.0,637.9"/>
<polygon points="238.0,637.9 225.0,660.5 199.0,660.5 186.0,637.9 199.0,615.4 225.0,615.4"/>
<polygon points="277.0,660.5 264.0,683.0 238.0,683.0 225.0,660.5 238.0,637.9 264.0,637.9"/>
<polygon points="316.0,637.9 303.0,660.5 277.0,660.5 264.0,637.9 277.0,615.4 303.0,615.4"/>
<polygon points="355.0,660.5 342.0,683.0 316.0,683.0 303.0,660.5 316.0,637.9 342.0,637.9"/>
<polygon points="394.0,637.9 381.0,660.5 355.0,660.5 342.0,637.9 355.0,615.4 381.0,615.4"/>
<polygon points="433.0,660.5 420.0,683.0 394.0,683.0 381.0,660.5 394.0,637.9 420.0,637.9"/>
<polygon points="472.0,637.9 459.0,660.5 433.0,660.5 420.0,637.9 433.0,615.4 459.0,615.4"/>
<polygon points="511.0,660.5 498.0,683.0 472.0,683.0 459.0,660.5 472.0,637.9 498.0,637.9"/>
<polygon points="550.0,637.9 537.0,660.5 511.0,660.5 498.0,637.9 511.0,615.4 537.0,615.4"/>
<polygon points="589.0,660.5 576.0,683.0 550.0,683.0 537.0,660.5 550.0,637.9 576.0,637.9"/>
<polygon points="628.0,637.9 615.0,660.5 589.0,660.5 576.0,637.9 589.0,615.4 615.0,615.4"/>
<polygon points="667.0,660.5 654.0,683.0 628.0,683.0 615.0,660.5 628.0,637.9 654.0,637.9"/>
<polygon points="706.0,637.9 693.0,660.5 667.0,660.5 654.0,637.9 667.0,615.4 693.0,615.4"/>
<polygon points="745.0,660.5 732.0,683.0 706.0,683.0 693.0,660.5 706.0,637.9 732.0,637.9"/>
<polygon points="784.0,637.9 771.0,660.5 745.0,660.5 732.0,637.9 745.0,615.4 771.0,615.4"/>
<polygon points="823.0,660.5 810.0,683.0 784.0,683.0 771.0,660.5 784.0,637.9 810.0,637.9"/>
<polygon points="862.0,637.9 849.0,660.5 823.0,660.5 810.0,637.9 823.0,615.4 849.0,615.4"/>
<polygon points="82.0,683.0 69.0,705.5 43.0,705.5 30.0,683.0 43.0,660.5 69.0,660.5"/>
<polygon points="121.0,705.5 108.0,728.0 82.0,728.0 69.0,705.5 82.0,683.0 108.0,683.0"/>
<polygon points="160.0,683.0 147.0,705.5 121.0,705.5 108.0,683.0 121.0,660.5 147.0,660.5"/>
<polygon points="199.0,705.5 186.0,728.0 160.0,728.0 147.0,705.5 160.0,683.0 186.0,683.0"/>
<polygon points="238.0,683.0 225.0,705.5 199.0,705.5 186.0,683.0 199.0,660.5 225.0,660.5"/>
<polygon points="277.0,705.5 264.0,728.0 238.0,728.0 225.0,705.5 238.0,683.0 264.0,683.0"/>
<polygon points="316.0,683.0 303.0,705.5 277.0,705.5 264.0,683.0 277.0,660.5 303.0,660.5"/>
<polygon points="355.0,705.5 342.0,728.0 316.0,728.0 303.0,705.5 316.0,683.0 342.0,683.0"/>
<polygon points="394.0,683.0 381.0,705.5 355.0,705.5 342.0,683.0 355.0,660.5 381.0,660.5"/>
<polygon points="433.0,705.5 420.0,728.0 394.0,728.0 381.0,705.5 394.0,683.0 420.0,683.0"/>
<polygon points="472.0,683.0 459.0,705.5 433.0,705.5 420.0,683.0 433.0,660.5 459.0,660.5"/>
<polygon points="511.0,705.5 498.0,728.0 472.0,728.0 459.0,705.5 472.0,683.0 498.0,683.0"/>
<polygon points="550.0,683.0 537.0,705.5 511.0,705.5 498.0,683.0 511.0,660.5 537.0,660.5"/>
<polygon points="589.0,705.5 576.0,728.0 550.0,728.0 537.0,705.5 550.0,683.0 576.0,683.0"/>
<polygon points="628.0,683.0 615.0,705.5 589.0,705.5 576.0,683.0 589.0,660.5 615.0,660.5"/>
<polygon points="667.0,705.5 654.0,728.0 628.0,728.0 615.0,705.5 628.0,683.0 654.0,683.0"/>
<polygon points="706.0,683.0 693.0,705.5 667.0,705.5 654.0,683.0 667.0,660.5 693.0,660.5"/>
<polygon points="745.0,705.5 732.0,728.0 706.0,728.0 693.0,705.5 706.0,683.0 732.0,683.0"/>
<polygon points="784.0,683.0 771.0,705.5 745.0,705.5 732.0,683.0 745.0,660.5 771.0,660.5"/>
<polygon points="823.0,705.5 810.0,728.0 784.0,728.0 771.0,705.5 784.0,683.0 810.0,683.0"/>
<polygon points="862.0,683.0 849.0,705.5 823.0,705.5 810.0,683.0 823.0,660.5 849.0,660.5"/>
<polygon points="82.0,728.0 69.0,750.5 43.0,750.5 30.0,728.0 43.0,705.5 69.0,705.5"/>
<polygon points="121.0,750.5 108.0,773.0 82.0,773.0 69.0,750.5 82.0,728.0 108.0,728.0"/>
<polygon points="160.0,728.0 147.0,750.5 121.0,750.5 108.0,728.0 121.0,705.5 147.0,705.5"/>
<polygon points="199.0,750.5 186.0,773.0 160.0,773.0 147.0,750.5 160.0,728.0 186.0,728.0"/>
<polygon points="238.0,728.0 225.0,750.5 199.0,750.5 186.0,728.0 199.0,705.5 225.0,705.5"/>
<polygon points="277.0,750.5 264.0,773.0 238.0,773.0 225.0,750.5 238.0,728.0 264.0,728.0"/>
<polygon points="316.0,728.0 303.0,750.5 277.0,750.5 264.0,728.0 277.0,705.5 303.0,705.5"/>
<polygon points="355.0,750.5 342.0,773.0 316.0,773.0 303.0,750.5 316.0,728.0 342.0,728.0"/>
<polygon points="394.0,728.0 381.0,750.5 355.0,750.5 342.0,728.0 355.0,705.5 381.0,705.5"/>
<polygon points="433.0,750.5 420.0,773.0 394.0,773.0 381.0,750.5 394.0,728.0 420.0,728.0"/>
<polygon points="472.0,728.0 459.0,750.5 433.0,750.5 420.0,728.0 433.0,705.5 459.0,705.5"/>
<polygon points="511.0,750.5 498.0,773.0 472.0,773.0 459.0,750.5 472.0,728.0 498.0,728.0"/>
<polygon points="550.0,728.0 537.0,750.5 511.0,750.5 498.0,728.0 511.0,705.5 537.0,705.5"/>
<polygon points="589.0,750.5 576.0,773.0 550.0,773.0 537.0,750.5 550.0,728.0 576.0,728.0"/>
<polygon points="628.0,728.0 615.0,750.5 589.0,750.5 576.0,728.0 589.0,705.5 615.0,705.5"/>
<polygon points="667.0,750.5 654.0,773.0 628.0,773.0 615.0,750.5 628.0,728.0 654.0,728.0"/>
<polygon points="706.0,728.0 693.0,750.5 667.0,750.5 654.0,728.0 667.0,705.5 693.0,705.5"/>
<polygon points="745.0,750.5 732.0,773.0 706.0,773.0 693.0,750.5 706.0,728.0 732.0,728.0"/>
<polygon points="784.0,728.0 771.0,750.5 745.0,750.5 732.0,728.0 745.0,705.5 771.0,705.5"/>
<polygon points="823.0,750.5 810.0,773.0 784.0,773.0 771.0,750.5 784.0,728.0 810.0,728.0"/>
<polygon points="862.0,728.0 849.0,750.5 823.0,750.5 810.0,728.0 823.0,705.5 849.0,705.5"/>
<polygon points="82.0,773.0 69.0,795.6 43.0,795.6 30.0,773.0 43.0,750.5 69.0,750.5"/>
<polygon points="121.0,795.6 108.0,818.1 82.0,818.1 69.0,795.6 82.0,773.0 108.0,773.0"/>
<polygon points="160.0,773.0 147.0,795.6 121.0,795.6 108.0,773.0 121.0,750.5 147.0,750.5"/>
<polygon points="199.0,795.6 186.0,818.1 160.0,818.1 147.0,795.6 160.0,773.0 186.0,773.0"/>
<polygon points="238.0,773.0 225.0,795.6 199.0,795.6 186.0,773.0 199.0,750.5 225.0,750.5"/>
<polygon points="277.0,795.6 264.0,818.1 238.0,818.1 225.0,795.6 238.0,773.0 264.0,773.0"/>
<polygon points="316.0,773.0 303.0,795.6 277.0,795.6 264.0,773.0 277.0,750.5 303.0,750.5"/>
<polygon points="355.0,795.6 342.0,818.1 316.0,818.1 303.0,795.6 316.0,773.0 342.0,773.0"/>
<polygon points="394.0,773.0 381.0,795.6 355.0,795.6 342.0,773.0 355.0,750.5 381.0,750.5"/>
<polygon points="433.0,795.6 420.0,818.1 394.0,818.1 381.0,795.6 394.0,773.0 420.0,773.0"/>
<polygon points="472.0,773.0 459.0,795.6 433.0,795.6 420.0,773.0 433.0,750.5 459.0,750.5"/>
<polygon points="511.0,795.6 498.0,818.1 472.0,818.1 459.0,795.6 472.0,773.0 498.0,773.0"/>
<polygon points="550.0,773.0 537.0,795.6 511.0,795.6 498.0,773.0 511.0,750.5 537.0,750.5"/>
<polygon points="589.0,795.6 576.0,818.1 550.0,818.1 537.0,795.6 550.0,773.0 576.0,773.0"/>
<polygon points="628.0,773.0 615.0,795.6 589.0,795.6 576.0,773.0 589.0,750.5 615.0,750.5"/>
<polygon points="667.0,795.6 654.0,818.1 628.0,818.1 615.0,795.6 628.0,773.0 654.0,773.0"/>
<polygon points="706.0,773.0 693.0,795.6 667.0,795.6 654.0,773.0 667.0,750.5 693.0,750.5"/>
<polygon points="745.0,795.6 732.0,818.1 706.0,818.1 693.0,795.6 706.0,773.0 732.0,773.0"/>
<polygon points="784.0,773.0 771.0,795.6 745.0,795.6 732.0,773.0 745.0,750.5 771.0,750.5"/>
<polygon points="823.0,795.6 810.0,818.1 784.0,818.1 771.0,795.6 784.0,773.0 810.0,773.0"/>
<polygon points="862.0,773.0 849.0,795.6 823.0,795.6 810.0,773.0 823.0,750.5 849.0,750.5"/>
<polygon points="82.0,818.1 69.0,840.6 43.0,840.6 30.0,818.1 43.0,795.6 69.0,795.6"/>
<polygon points="121.0,840.6 108.0,863.1 82.0,863.1 69.0,840.6 82.0,818.1 108.0,818.1"/>
<polygon points="160.0,818.1 147.0,840.6 121.0,840.6 108.0,818.1 121.0,795.6 147.0,795.6"/>
<polygon points="199.0,840.6 186.0,863.1 160.0,863.1 147.0,840.6 160.0,818.1 186.0,818.1"/>
<polygon points="238.0,818.1 225.0,840.6 199.0,840.6 186.0,818.1 199.0,795.6 225.0,795.6"/>
<polygon points="277.0,840.6 264.0,863.1 238.0,863.1 225.0,840.6 238.0,818.1 264.0,818.1"/>
<polygon points="316.0,818.1 303.0,840.6 277.0,840.6 264.0,818.1 277.0,795.6 303.0,795.6"/>
<polygon points="355.0,840.6 342.0,863.1 316.0,863.1 303.0,840.6 316.0,818.1 342.0,818.1"/>
<polygon points="394.0,818.1 381.0,840.6 355.0,840.6 342.0,818.1 355.0,795.6 381.0,795.6"/>
<polygon points="433.0,840.6 420.0,863.1 394.0,863.1 381.0,840.6 394.0,818.1 420.0,818.1"/>
<polygon points="472.0,818.1 459.0,840.6 433.0,840.6 420.0,818.1 433.0,795.6 459.0,795.6"/>
<polygon points="511.0,840.6 498.0,863.1 472.0,863.1 459.0,840.6 472.0,818.1 498.0,818.1"/>
<polygon points="550.0,818.1 537.0,840.6 511.0,840.6 498.0,818.1 511.0,795.6 537.0,795.6"/>
<polygon points="589.0,840.6 576.0,863.1 550.0,863.1 537.0,840.6 550.0,818.1 576.0,818.1"/>
<polygon points="628.0,818.1 615.0,840.6 589.0,840.6 576.0,818.1 589.0,795.6 615.0,795.6"/>
<polygon points="667.0,840.6 654.0,863.1 628.0,863.1 615.0,840.6 628.0,818.1 654.0,818.1"/>
<polygon points="706.0,818.1 693.0,840.6 667.0,840.6 654.0,818.1 667.0,795.6 693.0,795.6"/>
<polygon points="745.0,840.6 732.0,863.1 706.0,863.1 693.0,840.6 706.0,818.1 732.0,818.1"/>
<polygon points="784.0,818.1 771.0,840.6 745.0,840.6 732.0,818.1 745.0,795.6 771.0,795.6"/>
<polygon points="823.0,840.6 810.0,863.1 784.0,863.1 771.0,840.6 784.0,818.1 810.0,818.1"/>
<polygon points="862.0,818.1 849.0,840.6 823.0,840.6 810.0,818.1 823.0,795.6 849.0,795.6"/>
<polygon points="82.0,863.1 69.0,885.6 43.0,885.6 30.0,863.1 43.0,840.6 69.0,840.6"/>
<polygon points="121.0,885.6 108.0,908.1 82.0,908.1 69.0,885.6 82.0,863.1 108.0,863.1"/>
<polygon points="160.0,863.1 147.0,885.6 121.0,885.6 108.0,863.1 121.0,840.6 147.0,840.6"/>
<polygon points="199.0,885.6 186.0,908.1 160.0,908.1 147.0,885.6 160.0,863.1 186.0,863.1"/>
<polygon points="238.0,863.1 225.0,885.6 199.0,885.6 186.0,863.1 199.0,840.6 225.0,840.6"/>
<polygon points="277.0,885.6 264.0,908.1 238.0,908.1 225.0,885.6 238.0,863.1 264.0,863.1"/>
<polygon points="316.0,863.1 303.0,885.6 277.0,885.6 264.0,863.1 277.0,840.6 303.0,840.6"/>
<polygon points="355.0,885.6 342.0,908.1 316.0,908.1 303.0,885.6 316.0,863.1 342.0,863.1"/>
<polygon points="394.0,863.1 381.0,885.6 355.0,885.6 342.0,863.1 355.0,840.6 381.0,840.6"/>
<polygon points="433.0,885.6 420.0,908.1 394.0,908.1 381.0,885.6 394.0,863.1 420.0,863.1"/>
<polygon points="472.0,863.1 459.0,885.6 433.0,885.6 420.0,863.1 433.0,840.6 459.0,840.6"/>
<polygon points="511.0,885.6 498.0,908.1 472.0,908.1 459.0,885.6 472.0,863.1 498.0,863.1"/>
<polygon points="550.0,863.1 537.0,885.6 511.0,885.6 498.0,863.1 511.0,840.6 537.0,840.6"/>
<polygon points="589.0,885.6 576.0,908.1 550.0,908.1 537.0,885.6 550.0,863.1 576.0,863.1"/>
<polygon points="628.0,863.1 615.0,885.6 589.0,885.6 576.0,863.1 589.0,840.6 615.0,840.6"/>
<polygon points="667.0,885.6 654.0,908.1 628.0,908.1 615.0,885.6 628.0,863.1 654.0,863.1"/>
<polygon points="706.0,863.1 693.0,885.6 667.0,885.6 654.0,863.1 667.0,840.6 693.0,840.6"/>
<polygon points="745.0,885.6 732.0,908.1 706.0,908.1 693.0,885.6 706.0,863.1 732.0,863.1"/>
<polygon points="784.0,863.1 771.0,885.6 745.0,885.6 732.0,863.1 745.0,840.6 771.0,840.6"/>
<polygon points="823.0,885.6 810.0,908.1 784.0,908.1 771.0,885.6 784.0,863.1 810.0,863.1"/>
<polygon points="862.0,863.1 849.0,885.6 823.0,885.6 810.0,863.1 823.0,840.6 849.0,840.6"/>
<polygon points="82.0,908.1 69.0,930.7 43.0,930.7 30.0,908.1 43.0,885.6 69.0,885.6"/>
<polygon points="121.0,930.7 108.0,953.2 82.0,953.2 69.0,930.7 82.0,908.1 108.0,908.1"/>
<polygon points="160.0,908.1 147.0,930.7 121.0,930.7 108.0,908.1 121.0,885.6 147.0,885.6"/>
<polygon points="199.0,930.7 186.0,953.2 160.0,953.2 147.0,930.7 160.0,908.1 186.0,908.1"/>
<polygon points="238.0,908.1 225.0,930.7 199.0,930.7 186.0,908.1 199.0,885.6 225.0,885.6"/>
<polygon points="277.0,930.7 264.0,953.2 238.0,953.2 225.0,930.7 238.0,908.1 264.0,908.1"/>
<polygon points="316.0,908.1 303.0,930.7 277.0,930.7 264.0,908.1 277.0,885.6 303.0,885.6"/>
<polygon points="355.0,930.7 342.0,953.2 316.0,953.2 303.0,930.7 316.0,908.1 342.0,908.1"/>
<polygon points="394.0,908.1 381.0,930.7 355.0,930.7 342.0,908.1 355.0,885.6 381.0,885.6"/>
<polygon points="433.0,930.7 420.0,953.2 394.0,953.2 381.0,930.7 394.0,908.1 420.0,908.1"/>
<polygon points="472.0,908.1 459.0,930.7 433.0,930.7 420.0,908.1 433.0,885.6 459.0,885.6"/>
<polygon points="511.0,930.7 498.0,953.2 472.0,953.2 459.0,930.7 472.0,908.1 498.0,908.1"/>
<polygon points="550.0,908.1 537.0,930.7 511.0,930.7 498.0,908.1 511.0,885.6 537.0,885.6"/>
<polygon points="589.0,930.7 576.0,953.2 550.0,953.2 537.0,930.7 550.0,908.1 576.0,908.1"/>
<polygon points="628.0,908.1 615.0,930.7 589.0,930.7 576.0,908.1 589.0,885.6 615.0,885.6"/>
<polygon points="667.0,930.7 654.0,953.2 628.0,953.2 615.0,930.7 628.0,908.1 654.0,908.1"/>
<polygon points="706.0,908.1 693.0,930.7 667.0,930.7 654.0,908.1 667.0,885.6 693.0,885.6"/>
<polygon points="745.0,930.7 732.0,953.2 706.0,953.2 693.0,930.7 706.0,908.1 732.0,908.1"/>
<polygon points="784.0,908.1 771.0,930.7 745.0,930.7 732.0,908.1 745.0,885.6 771.0,885.6"/>
<polygon points="823.0,930.7 810.0,953.2 784.0,953.2 771.0,930.7 784.0,908.1 810.0,908.1"/>
<polygon points="862.0,908.1 849.0,930.7 823.0,930.7 810.0,908.1 823.0,885.6 849.0,885.6"/>
</g>
<rect x="30" y="30" width="832" height="135" fill="#16240f" opacity="0.55"/>
<rect x="30" y="705" width="832" height="248" fill="#3a1e0c" opacity="0.6"/>
<text x="56" y="106" font-size="24" text-anchor="middle">🌲</text>
<text x="173" y="128" font-size="24" text-anchor="middle">🌲</text>
<text x="290" y="106" font-size="24" text-anchor="middle">🌲</text>
<text x="407" y="128" font-size="24" text-anchor="middle">🌲</text>
<text x="524" y="106" font-size="24" text-anchor="middle">🌲</text>
<text x="641" y="128" font-size="24" text-anchor="middle">🌲</text>
<text x="758" y="106" font-size="24" text-anchor="middle">🌲</text>
<text x="446" y="157" font-size="14" fill="#7da55f" font-weight="bold" font-style="normal" text-anchor="middle">M I S T W O O D  —  corrupted fey emerge from this tree-line</text>
<rect x="235" y="231" width="32" height="48" rx="6" fill="#4b4640" stroke="#6f6a60" stroke-width="2"/>
<text x="251" y="297" font-size="11" fill="#9a9488" font-weight="normal" font-style="normal" text-anchor="middle">standing stone</text>
<rect x="625" y="231" width="32" height="48" rx="6" fill="#4b4640" stroke="#6f6a60" stroke-width="2"/>
<text x="641" y="297" font-size="11" fill="#9a9488" font-weight="normal" font-style="normal" text-anchor="middle">standing stone</text>
<text x="446" y="237" font-size="12" fill="#c98fd0" font-weight="normal" font-style="normal" text-anchor="middle">Round 2 — Wenneth Tree-Strides out of a standing stone</text>
<rect x="380" y="383" width="132" height="60" rx="6" fill="#5a3c1c" stroke="#8a5e2c" stroke-width="3" transform="rotate(-8 446 413)"/>
<text x="446" y="411" font-size="12" fill="#e8dcc0" font-weight="bold" font-style="normal" text-anchor="middle">OVERTURNED DAIS</text>
<text x="446" y="427" font-size="11" fill="#c9a84c" font-weight="normal" font-style="normal" text-anchor="middle">3/4 cover (+5 AC)</text>
<line x1="173" y1="503" x2="173" y2="545" stroke="#6f5a36" stroke-width="5"/>
<circle cx="173" cy="499" r="9" fill="#3a3326" stroke="#6f5a36" stroke-width="2"/>
<text x="173" y="561" font-size="10" fill="#9a9488" font-weight="normal" font-style="normal" text-anchor="middle">lantern pole</text>
<line x1="446" y1="571" x2="446" y2="613" stroke="#6f5a36" stroke-width="5"/>
<circle cx="446" cy="567" r="9" fill="#3a3326" stroke="#6f5a36" stroke-width="2"/>
<text x="446" y="629" font-size="10" fill="#9a9488" font-weight="normal" font-style="normal" text-anchor="middle">lantern pole</text>
<line x1="719" y1="503" x2="719" y2="545" stroke="#6f5a36" stroke-width="5"/>
<circle cx="719" cy="499" r="9" fill="#3a3326" stroke="#6f5a36" stroke-width="2"/>
<text x="719" y="561" font-size="10" fill="#9a9488" font-weight="normal" font-style="normal" text-anchor="middle">lantern pole</text>
<line x1="44" y1="638" x2="379" y2="638" stroke="#7a7068" stroke-width="10" stroke-linecap="round"/>
<line x1="513" y1="638" x2="848" y2="638" stroke="#7a7068" stroke-width="10" stroke-linecap="round"/>
<text x="205" y="624" font-size="12" fill="#cfc6b4" font-weight="bold" font-style="normal" text-anchor="middle">LOW STONE WALL — half cover (+2 AC)</text>
<text x="446" y="643" font-size="10" fill="#9a9488" font-weight="normal" font-style="normal" text-anchor="middle">gap</text>
<text x="687" y="658" font-size="10" fill="#c9a84c" font-weight="normal" font-style="normal" text-anchor="middle">vault: 5 ft move or DC 10 Athletics</text>
<rect x="40" y="715" width="812" height="217" rx="7" fill="#3a1e0c" fill-opacity="0.42" stroke="#8a5e2c" stroke-width="3"/>
<rect x="420" y="708" width="52" height="14" fill="#c9a84c"/>
<text x="446" y="700" font-size="11" fill="#c9a84c" font-weight="bold" font-style="normal" text-anchor="middle">DOOR</text>
<rect x="174" y="709" width="44" height="10" fill="#7da3c9"/>
<text x="196" y="700" font-size="10" fill="#7da3c9" font-weight="normal" font-style="normal" text-anchor="middle">window</text>
<rect x="674" y="709" width="44" height="10" fill="#7da3c9"/>
<text x="696" y="700" font-size="10" fill="#7da3c9" font-weight="normal" font-style="normal" text-anchor="middle">window</text>
<text x="52" y="737" font-size="14" fill="#e8dcc0" font-weight="bold" font-style="normal" text-anchor="start">THE HEARTH — interior</text>
<rect x="362" y="903" width="168" height="30" rx="4" fill="#7a3310" stroke="#b5601e" stroke-width="3"/>
<ellipse cx="446" cy="911" rx="72" ry="22" fill="#e8862e" opacity="0.5"/>
<path d="M402,925 q-7,-18 0,-30 q7,12 0,30 Z" fill="#f0a838"/>
<path d="M446,925 q-7,-18 0,-30 q7,12 0,30 Z" fill="#f0a838"/>
<path d="M490,925 q-7,-18 0,-30 q7,12 0,30 Z" fill="#f0a838"/>
<text x="446" y="895" font-size="11" fill="#f0a838" font-weight="bold" font-style="normal" text-anchor="middle">GREAT HEARTH — bright light; shove-in 1d10 fire</text>
<rect x="66" y="767" width="190" height="26" rx="5" fill="#5a3c1c" stroke="#8a5e2c" stroke-width="2"/>
<rect x="66" y="767" width="26" height="92" rx="5" fill="#5a3c1c" stroke="#8a5e2c" stroke-width="2"/>
<text x="171" y="784" font-size="11" fill="#e8dcc0" font-weight="bold" font-style="normal" text-anchor="middle">THE BAR</text>
<text x="166" y="883" font-size="10" fill="#c9a84c" font-weight="start" font-style="normal" text-anchor="middle">Belva fights from here (poker) · 3/4 cover behind it</text>
<rect x="760" y="723" width="80" height="9" fill="#6f5a36" stroke="#8a6f44" stroke-width="1"/>
<rect x="760" y="734" width="68" height="9" fill="#6f5a36" stroke="#8a6f44" stroke-width="1"/>
<rect x="760" y="745" width="56" height="9" fill="#6f5a36" stroke="#8a6f44" stroke-width="1"/>
<rect x="760" y="756" width="44" height="9" fill="#6f5a36" stroke="#8a6f44" stroke-width="1"/>
<rect x="760" y="767" width="32" height="9" fill="#6f5a36" stroke="#8a6f44" stroke-width="1"/>
<text x="800" y="797" font-size="10" fill="#d9c9a8" font-weight="normal" font-style="normal" text-anchor="middle">stairs ↑ loft</text>
<text x="800" y="811" font-size="9" fill="#9a9488" font-weight="normal" font-style="normal" text-anchor="middle">(Halve was up here)</text>
<ellipse cx="110" cy="867" rx="62" ry="40" fill="#7da3c9" opacity="0.18" stroke="#7da3c9" stroke-width="1.5" stroke-dasharray="4 3"/>
<text x="110" y="865" font-size="20" text-anchor="middle">👥</text>
<text x="110" y="889" font-size="10" fill="#7da3c9" font-weight="bold" font-style="normal" text-anchor="middle">15 villagers — PROTECT</text>
<text x="110" y="902" font-size="9" fill="#9a9488" font-weight="normal" font-style="normal" text-anchor="middle">Blossom-Seller threatens</text>
<text x="110" y="913" font-size="9" fill="#9a9488" font-weight="normal" font-style="normal" text-anchor="middle">them to force a disengage</text>
<circle cx="495" cy="775" r="17" fill="#4a3115" stroke="#7a5226" stroke-width="2"/>
<circle cx="641" cy="811" r="17" fill="#4a3115" stroke="#7a5226" stroke-width="2"/>
<circle cx="543" cy="853" r="17" fill="#4a3115" stroke="#7a5226" stroke-width="2"/>
<circle cx="738" cy="785" r="17" fill="#4a3115" stroke="#7a5226" stroke-width="2"/>
<text x="617" y="877" font-size="10" fill="#c9a84c" font-weight="normal" font-style="normal" text-anchor="middle">tables — overturn for 1/2 cover (+2 AC) & difficult terrain</text>
<text x="848" y="52" font-size="12" fill="#6a6a78" font-weight="normal" font-style="normal" text-anchor="end">the dark Lantern Shrine is on the hill, far off —</text>
<text x="848" y="68" font-size="12" fill="#6a6a78" font-weight="normal" font-style="normal" text-anchor="end">not reached this fight (it's the aftermath map) ↗</text>
<rect x="24" y="965" width="844" height="224" rx="8" fill="#241f17" stroke="#5a4a2a" stroke-width="2"/>
<text x="44" y="989" font-size="15" fill="#c9a84c" font-weight="bold" font-style="normal" text-anchor="start">SESSION 1 — HOLD THE HEARTH</text>
<text x="44" y="1008" font-size="11" fill="#9a9488" font-weight="normal" font-style="italic" text-anchor="start">Market Green, outside The Hearth · flat-top hexes · 1 hex = 5 ft · ~21 x 20 hexes</text>
<text x="44" y="1033" font-size="12" fill="#e8dcc0" font-weight="bold" font-style="normal" text-anchor="start">ROSTER  (375 XP · Moderate)</text>
<text x="44" y="1051" font-size="11" fill="#d9c9a8" font-weight="normal" font-style="normal" text-anchor="start">Wenneth — Dryad statblock, corrupted</text>
<text x="44" y="1068" font-size="11" fill="#d9c9a8" font-weight="normal" font-style="normal" text-anchor="start">Blossom-Seller — Bandit statblock</text>
<text x="44" y="1085" font-size="11" fill="#d9c9a8" font-weight="normal" font-style="normal" text-anchor="start">3x Corrupted Pixie — Sprite statblock</text>
<text x="44" y="1102" font-size="6" fill="#000" font-weight="normal" font-style="normal" text-anchor="start"></text>
<text x="44" y="1114" font-size="12" fill="#e8dcc0" font-weight="bold" font-style="normal" text-anchor="start">FLOW</text>
<text x="44" y="1132" font-size="11" fill="#d9c9a8" font-weight="normal" font-style="normal" text-anchor="start">R1: 2 pixies thru door, 1 thru window</text>
<text x="44" y="1149" font-size="11" fill="#d9c9a8" font-weight="normal" font-style="normal" text-anchor="start">R2: Wenneth from a stone; Blossom-</text>
<text x="44" y="1166" font-size="11" fill="#d9c9a8" font-weight="normal" font-style="normal" text-anchor="start">    Seller thru the door</text>
<text x="44" y="1183" font-size="11" fill="#d9c9a8" font-weight="normal" font-style="normal" text-anchor="start">R3: Yelvyne arrives wounded</text>
<text x="321" y="1033" font-size="12" fill="#e8dcc0" font-weight="bold" font-style="normal" text-anchor="start">TERRAIN</text>
<text x="321" y="1051" font-size="11" fill="#d9c9a8" font-weight="normal" font-style="normal" text-anchor="start">Low stone wall — half cover, +2 AC.</text>
<text x="321" y="1068" font-size="10" fill="#9a9488" font-weight="normal" font-style="normal" text-anchor="start">  Vault: 5 ft move or DC 10 Athletics</text>
<text x="321" y="1084" font-size="11" fill="#d9c9a8" font-weight="normal" font-style="normal" text-anchor="start">Overturned dais — 3/4 cover, +5 AC,</text>
<text x="321" y="1101" font-size="10" fill="#9a9488" font-weight="normal" font-style="normal" text-anchor="start">  fits 2 Medium crouched</text>
<text x="321" y="1117" font-size="11" fill="#d9c9a8" font-weight="normal" font-style="normal" text-anchor="start">Lantern poles x3 — topple DC 12 STR</text>
<text x="321" y="1134" font-size="10" fill="#9a9488" font-weight="normal" font-style="normal" text-anchor="start">  -> 10 ft difficult terrain, or grab as</text>
<text x="321" y="1150" font-size="10" fill="#9a9488" font-weight="normal" font-style="normal" text-anchor="start">  an improvised weapon (1d8 bludgeon)</text>
<text x="321" y="1166" font-size="11" fill="#d9c9a8" font-weight="normal" font-style="normal" text-anchor="start">Standing stones — cover; Wenneth</text>
<text x="321" y="1183" font-size="10" fill="#9a9488" font-weight="normal" font-style="normal" text-anchor="start">  Tree-Strides from one (Round 2)</text>
<text x="599" y="1033" font-size="12" fill="#e8dcc0" font-weight="bold" font-style="normal" text-anchor="start">LIGHT</text>
<text x="599" y="1051" font-size="11" fill="#d9c9a8" font-weight="normal" font-style="normal" text-anchor="start">Dim across the green (firelight bleed)</text>
<text x="599" y="1068" font-size="11" fill="#d9c9a8" font-weight="normal" font-style="normal" text-anchor="start">Bright within 10 ft of the door</text>
<text x="599" y="1085" font-size="11" fill="#d9c9a8" font-weight="normal" font-style="normal" text-anchor="start">Past the lantern-pole ring = darkness;</text>
<text x="599" y="1102" font-size="10" fill="#9a9488" font-weight="normal" font-style="normal" text-anchor="start">  no-darkvision PCs roll at disadvantage</text>
<text x="599" y="1118" font-size="6" fill="#000" font-weight="normal" font-style="normal" text-anchor="start"></text>
<text x="599" y="1130" font-size="12" fill="#e8dcc0" font-weight="bold" font-style="normal" text-anchor="start">MAT NOTE</text>
<text x="599" y="1148" font-size="11" fill="#d9c9a8" font-weight="normal" font-style="normal" text-anchor="start">Sized to a Chessex 96246. Combat on</text>
<text x="599" y="1165" font-size="11" fill="#d9c9a8" font-weight="normal" font-style="normal" text-anchor="start">the hex side; flip to the square side</text>
<text x="599" y="1182" font-size="11" fill="#d9c9a8" font-weight="normal" font-style="normal" text-anchor="start">(your shrine grove) for the aftermath.</text>
</svg>